<svg width="18" height="18" viewBox="0 0 18 18" fill="none" xmlns="http://www.w3.org/2000/svg">
<path d="M16.2655 8.16153L15.53 11.2986C14.8996 14.008 13.6538 15.1037 11.3122 14.8785C10.9369 14.8485 10.5317 14.781 10.0964 14.6759L8.83553 14.3757C5.70589 13.6327 4.73774 12.0867 5.47323 8.94956L6.20873 5.80495C6.35883 5.16702 6.53895 4.61164 6.7641 4.15383C7.64222 2.33761 9.13573 1.84978 11.6424 2.44268L12.8958 2.73538C16.0404 3.47087 17.001 5.02442 16.2655 8.16153Z" stroke="#003A70" stroke-width="1.4" stroke-linecap="round" stroke-linejoin="round"/>
<path d="M11.3121 14.8785C10.8468 15.1938 10.2614 15.4564 9.54845 15.6891L8.36265 16.0794C5.38313 17.04 3.81457 16.237 2.84642 13.2575L1.88577 10.293C0.925123 7.31344 1.72066 5.73737 4.70016 4.77673L5.88596 4.38647C6.19367 4.2889 6.48637 4.20634 6.76406 4.15381C6.5389 4.61162 6.35878 5.16699 6.20868 5.80492L5.47319 8.94955C4.73769 12.0867 5.70585 13.6327 8.83547 14.3757L10.0963 14.6759C10.5316 14.781 10.9369 14.8485 11.3121 14.8785Z" stroke="#003A70" stroke-width="1.4" stroke-linecap="round" stroke-linejoin="round"/>
<path d="M9.49609 6.72803L13.136 7.65115" stroke="#003A70" stroke-width="1.4" stroke-linecap="round" stroke-linejoin="round"/>
<path d="M8.76025 9.63232L10.9367 10.1877" stroke="#003A70" stroke-width="1.4" stroke-linecap="round" stroke-linejoin="round"/>
</svg>
