<svg width="18" height="18" viewBox="0 0 18 18" fill="none" xmlns="http://www.w3.org/2000/svg">
<path d="M1.875 5.84994C1.875 4.01694 2.8125 2.44419 4.5915 2.07969C6.00662 1.68273 7.51774 1.81306 8.844 2.44644C9.969 3.05244 9.64575 3.94644 10.8 4.60269C11.9542 5.25894 13.8127 4.27269 15.0262 5.58219C16.2967 6.95319 16.29 9.05694 16.29 10.3987C16.29 15.4987 13.4347 15.8999 9.0825 15.8999C4.73025 15.8999 1.875 15.5467 1.875 10.3979V5.84994Z" stroke="#003A70" stroke-width="1.5" stroke-miterlimit="10" stroke-linecap="round" stroke-linejoin="round"/>
<path d="M9 7.125C9.24163 7.125 9.4375 7.32088 9.4375 7.5625V9.3125H11.1875C11.4291 9.3125 11.625 9.50837 11.625 9.75C11.625 9.99163 11.4291 10.1875 11.1875 10.1875H9.4375V11.9375C9.4375 12.1791 9.24163 12.375 9 12.375C8.75837 12.375 8.5625 12.1791 8.5625 11.9375V10.1875H6.8125C6.57088 10.1875 6.375 9.99163 6.375 9.75C6.375 9.50837 6.57088 9.3125 6.8125 9.3125H8.5625V7.5625C8.5625 7.32088 8.75837 7.125 9 7.125Z" fill="#003A70"/>
</svg>
