<svg width="16" height="16" viewBox="0 0 16 16" fill="none" xmlns="http://www.w3.org/2000/svg">
<g clip-path="url(#clip0_826_848)">
<path d="M11.9127 3.64253L12.3824 3.05458C13.026 2.25092 12.8955 1.07675 12.0901 0.433135L12.0606 0.408782C11.2569 -0.234836 10.0827 -0.104373 9.43912 0.70102L8.97119 1.28723L11.9127 3.64253Z" fill="#003A70"/>
<path d="M9.05475 8.58453C9.0704 8.72715 9.14172 8.86285 9.26175 8.96026C9.50354 9.15335 9.85666 9.11508 10.0497 8.87329L13.2765 4.83763C13.4731 4.59236 13.4296 4.23228 13.1774 4.04093C12.9339 3.85654 12.5842 3.90873 12.3929 4.14704L12.078 4.54017L11.5388 4.10877L11.5405 4.10703L8.60074 1.75L1.0791 11.152L4.02061 13.5073L10.8412 4.98375L11.3805 5.41514L9.17478 8.17227C9.07738 8.29227 9.03911 8.44189 9.05475 8.58453Z" fill="#003A70"/>
<path d="M3.53171 13.942L0.760676 11.7224C0.715448 11.8772 0.692835 12.0129 0.692835 12.0129L0.0579143 15.0536C0.0126871 15.2728 0.235344 15.4519 0.438867 15.358L3.26731 14.0707C3.26557 14.0707 3.39081 14.0186 3.53171 13.942Z" fill="#003A70"/>
<path d="M15.5447 14.4866C15.5204 14.4866 15.4978 14.4883 15.4734 14.4918L11.1995 15.045C10.9803 15.0728 10.8272 14.8328 10.9455 14.6449C11.0098 14.5457 11.0725 14.4449 11.1351 14.344C11.3003 14.0761 11.0794 13.7195 10.7733 13.7195C10.7524 13.7195 10.7315 13.7212 10.7089 13.7247L5.10768 14.5666L4.43797 14.6675L2.61148 14.9424C2.40448 14.9737 2.26532 15.1494 2.28272 15.3599C2.28967 15.4538 2.32794 15.5425 2.38883 15.6086C2.46015 15.6869 2.5593 15.7304 2.66715 15.7304C2.68802 15.7304 2.70889 15.7286 2.73151 15.7252L9.40776 14.7215C9.63563 14.6867 9.79219 14.9441 9.65823 15.132C9.61474 15.1911 9.57126 15.252 9.52777 15.3111C9.40776 15.4747 9.43557 15.7478 9.57473 15.8887C9.64605 15.9617 9.73651 16 9.83218 16C9.84264 16 9.8548 16 9.86523 15.9982H9.86697H9.86873L15.6317 15.2642H15.6335H15.6352C15.7344 15.2485 15.8213 15.1911 15.8787 15.1024C15.9414 15.005 15.964 14.885 15.9362 14.7771C15.8909 14.6014 15.7378 14.4866 15.5447 14.4866Z" fill="#003A70"/>
</g>
<defs>
<clipPath id="clip0_826_848">
<rect width="16" height="16" fill="white"/>
</clipPath>
</defs>
</svg>
