<svg width="12" height="12" viewBox="0 0 12 12" fill="none" xmlns="http://www.w3.org/2000/svg">
<path d="M7.58192 6.02607C7.58192 6.33876 7.4892 6.64443 7.31548 6.90442C7.14175 7.16442 6.89483 7.36706 6.60594 7.48672C6.31706 7.60638 5.99917 7.63769 5.69248 7.57669C5.3858 7.51569 5.10409 7.36511 4.88299 7.144C4.66188 6.9229 4.5113 6.64119 4.4503 6.33451C4.3893 6.02782 4.42061 5.70994 4.54027 5.42105C4.65993 5.13216 4.86257 4.88524 5.12257 4.71151C5.38256 4.53779 5.68823 4.44507 6.00092 4.44507C6.42023 4.44507 6.82236 4.61164 7.11886 4.90813C7.41535 5.20463 7.58192 5.60676 7.58192 6.02607Z" stroke="#D7282F" stroke-width="1.5" stroke-miterlimit="10" stroke-linecap="round" stroke-linejoin="round"/>
<path d="M1.375 6.025C1.375 7.665 3.446 9.675 6.001 9.675C8.556 9.675 10.625 7.6675 10.625 6.025C10.625 4.3825 8.5555 2.375 6.001 2.375C3.4465 2.375 1.375 4.386 1.375 6.025Z" stroke="#D7282F" stroke-width="1.5" stroke-miterlimit="10" stroke-linecap="round" stroke-linejoin="round"/>
</svg>
