<svg width="13" height="13" viewBox="0 0 13 13" fill="none" xmlns="http://www.w3.org/2000/svg">
<path d="M3.71 9.43841C2.595 8.70841 1.875 7.60841 1.875 6.64341C1.875 5.00341 3.945 2.99341 6.5 2.99341C7.4955 2.9972 8.46775 3.29462 9.295 3.84841" stroke="#D7282F" stroke-width="1.5" stroke-miterlimit="10" stroke-linecap="round" stroke-linejoin="round"/>
<path d="M10.4246 4.87842C10.8478 5.37287 11.0957 5.99342 11.1296 6.64342C11.1296 8.28342 9.05457 10.2934 6.49957 10.2934C6.05514 10.2928 5.61282 10.2323 5.18457 10.1134" stroke="#D7282F" stroke-width="1.5" stroke-miterlimit="10" stroke-linecap="round" stroke-linejoin="round"/>
<path d="M5.38342 7.75937C5.23589 7.61333 5.11898 7.4393 5.03957 7.2475C4.96015 7.05569 4.91981 6.84997 4.92092 6.64237C4.92032 6.32965 5.01253 6.02377 5.18588 5.76349C5.35924 5.50321 5.60593 5.30022 5.89472 5.18024C6.18352 5.06026 6.50142 5.02868 6.80818 5.08949C7.11494 5.15031 7.39674 5.30079 7.61792 5.52187" stroke="#D7282F" stroke-width="1.5" stroke-miterlimit="10" stroke-linecap="round" stroke-linejoin="round"/>
<path d="M8.05463 6.92285C7.99733 7.23848 7.84526 7.52917 7.61865 7.75623C7.39204 7.98328 7.10165 8.13593 6.78613 8.19385" stroke="#D7282F" stroke-width="1.5" stroke-miterlimit="10" stroke-linecap="round" stroke-linejoin="round"/>
<path d="M10.4456 2.69836L2.55859 10.5854" stroke="#D7282F" stroke-width="1.5" stroke-miterlimit="10" stroke-linecap="round" stroke-linejoin="round"/>
</svg>
