<svg height="511pt" viewBox="0 -3 511.99942 511" width="511pt" xmlns="http://www.w3.org/2000/svg"><path d="m496.246094 73.867188-57.613282-57.613282c-10.160156-10.160156-23.664062-15.753906-38.035156-15.753906-14.367187 0-27.871094 5.59375-38.03125 15.75l-258.382812 258.386719c-15.382813 15.378906-23.851563 35.832031-23.851563 57.585937 0 9.191406-3.726562 18.191406-10.226562 24.691406l-22.222657 22.21875c-5.78125 5.785157-9.097656 13.789063-9.097656 21.96875 0 5.34375 1.425782 10.613282 4.023438 15.242188l-38.414063 38.414062c-3.179687 3.179688-4.765625 7.613282-4.3203122 12.085938.4414062 4.472656 2.8671872 8.511719 6.6054692 11.003906l38.558593 25.707032c2.539063 1.691406 5.4375 2.519531 8.316407 2.519531 3.871093 0 7.710937-1.496094 10.609374-4.394531l31.992188-31.992188c4.628906 2.601562 9.898438 4.027344 15.246094 4.027344 8.175781 0 16.183594-3.316406 21.964844-9.101563l22.21875-22.21875c6.5-6.5 15.5-10.230469 24.691406-10.230469 21.753906 0 42.207031-8.46875 57.585937-23.847656l258.382813-258.382812c10.160156-10.160156 15.753906-23.667969 15.753906-38.035156 0-14.367188-5.59375-27.871094-15.753906-38.03125zm-444.597656 397.90625-13.105469-8.738282 24.65625-24.65625 10.921875 10.921875zm82.722656-50.59375-22.21875 22.21875c0 .003906 0 .003906-.003906.003906-.394532.398437-1.101563.394531-1.503907 0l-36.839843-36.84375s-.003907 0-.003907-.003906l-4.703125-4.703126c-.46875-.46875-.367187-1.140624 0-1.503906l22.222656-22.21875c12.261719-12.261718 19.011719-28.5625 19.011719-45.90625 0-6.832031 1.324219-13.460937 3.847657-19.59375l85.691406 85.6875c-6.132813 2.523438-12.761719 3.851563-19.59375 3.851563-17.339844 0-33.644532 6.75-45.90625 19.011719zm89.496094-41.292969-91.253907-91.253907 219.785157-219.785156 91.253906 91.253906zm251.167968-251.167969-10.167968 10.167969-91.253907-91.253907 10.167969-10.167968c9.289062-9.289063 24.335938-9.300782 33.636719 0l57.617187 57.617187c9.289063 9.289063 9.300782 24.335938 0 33.636719zm0 0"/></svg>