<svg id="svg" xmlns="http://www.w3.org/2000/svg" xmlns:xlink="http://www.w3.org/1999/xlink" width="400" height="563.4408602150538" viewBox="0, 0, 400,563.4408602150538"><g id="svgg"><path id="path0" d="M0.000 281.600 L 0.000 563.200 200.000 563.200 L 400.000 563.200 400.000 424.600 L 400.000 286.000 299.480 286.000 C 221.831 286.000,198.851 285.891,198.480 285.520 C 198.108 285.148,198.000 252.836,198.000 142.520 L 198.000 0.000 99.000 0.000 L 0.000 0.000 0.000 281.600 M204.400 139.320 C 204.400 247.147,204.509 278.749,204.880 279.120 C 205.251 279.491,227.520 279.600,302.680 279.600 L 400.000 279.600 400.000 139.800 L 400.000 0.000 302.200 0.000 L 204.400 0.000 204.400 139.320 " stroke="none" fill="#fcfcfc" fill-rule="evenodd"></path><path id="path1" d="M198.000 142.520 C 198.000 252.836,198.108 285.148,198.480 285.520 C 198.851 285.891,221.831 286.000,299.480 286.000 L 400.000 286.000 400.000 282.800 L 400.000 279.600 302.680 279.600 C 227.520 279.600,205.251 279.491,204.880 279.120 C 204.509 278.749,204.400 247.147,204.400 139.320 L 204.400 0.000 201.200 0.000 L 198.000 0.000 198.000 142.520 " stroke="none" fill="#7c7c7c" fill-rule="evenodd"></path></g></svg>