<svg xmlns="http://www.w3.org/2000/svg" xmlns:xlink="http://www.w3.org/1999/xlink" preserveAspectRatio="xMidYMid" width="17.969" height="24" viewBox="0 0 17.969 24">
  <defs>
    <style>
      .cls-1 {
        fill: #000;
        fill-rule: evenodd;
      }
    </style>
  </defs>
  <path d="M17.931,17.061 C17.925,17.152 17.908,17.240 17.878,17.327 C17.867,17.358 17.859,17.389 17.845,17.419 C17.797,17.523 17.736,17.621 17.653,17.706 C17.652,17.706 17.652,17.707 17.651,17.707 L11.675,23.707 C11.669,23.713 11.662,23.714 11.656,23.720 C11.568,23.804 11.467,23.875 11.353,23.922 C11.232,23.973 11.102,24.000 10.971,24.000 L2.006,24.000 C0.907,24.000 0.014,23.103 0.014,22.000 L0.014,2.000 C0.014,0.897 0.907,0.000 2.006,0.000 L15.951,0.000 C17.050,0.000 17.943,0.897 17.943,2.000 L17.943,17.000 C17.943,17.021 17.932,17.040 17.931,17.061 ZM11.967,20.586 L14.543,18.000 L11.967,18.000 L11.967,20.586 ZM16.031,2.000 L2.006,2.000 L2.006,22.000 L9.975,22.000 L9.975,17.000 C9.975,16.448 10.421,16.000 10.971,16.000 L16.031,16.000 L16.031,2.000 ZM3.002,13.000 C3.002,12.448 3.448,12.000 3.998,12.000 L13.959,12.000 C14.509,12.000 14.955,12.448 14.955,13.000 C14.955,13.552 14.509,14.000 13.959,14.000 L3.998,14.000 C3.448,14.000 3.002,13.552 3.002,13.000 ZM13.959,10.000 L10.971,10.000 C10.421,10.000 9.975,9.552 9.975,9.000 C9.975,8.448 10.421,8.000 10.971,8.000 L13.959,8.000 C14.509,8.000 14.955,8.448 14.955,9.000 C14.955,9.552 14.509,10.000 13.959,10.000 ZM13.959,6.000 L10.971,6.000 C10.421,6.000 9.975,5.552 9.975,5.000 C9.975,4.448 10.421,4.000 10.971,4.000 L13.959,4.000 C14.509,4.000 14.955,4.448 14.955,5.000 C14.955,5.552 14.509,6.000 13.959,6.000 ZM3.002,4.000 L8.979,4.000 L8.979,10.000 L3.002,10.000 L3.002,4.000 ZM4.994,8.000 L6.987,8.000 L6.987,6.000 L4.994,6.000 L4.994,8.000 ZM3.998,16.000 L6.987,16.000 C7.537,16.000 7.983,16.448 7.983,17.000 C7.983,17.552 7.537,18.000 6.987,18.000 L3.998,18.000 C3.448,18.000 3.002,17.552 3.002,17.000 C3.002,16.448 3.448,16.000 3.998,16.000 Z" class="cls-1"/>
</svg>
