<svg height="512pt" viewBox="0 -41 512 511" width="512pt" xmlns="http://www.w3.org/2000/svg"><path d="m411.609375 324.664062 68.324219-45.867187c20.816406-13.976563 26.382812-42.28125 12.410156-63.097656-7.832031-11.664063-20.664062-18.933594-34.378906-19.984375l-91.089844-135.6875c4.21875-13.09375 2.351562-27.722656-5.480469-39.386719-6.769531-10.085937-17.058593-16.929687-28.976562-19.273437s-24.035157.09375-34.117188 6.863281l-101.144531 67.898437c-20.816406 13.972656-26.382812 42.277344-12.40625 63.09375 7.832031 11.667969 20.660156 18.933594 34.378906 19.988282l10.878906 16.207031c-45.238281 23.496093-96.480468 59.050781-126.632812 89.277343l-26.207031 26.273438-77.167969 50.664062 58.398438 86.996094 76.117187-52.238281 34.242187-14.308594c1.179688-.492187 2.382813-1.019531 3.585938-1.542969v68.890626h339.65625v-104.765626zm70.363281 74.738282h-279.601562v-44.710938h279.601562zm-415.550781-12.699219-24.582031-36.617187 54.398437-35.71875 28.398438-28.464844c28.523437-28.59375 79.140625-63.40625 122.21875-85.386719l35.632812 53.078125c-36.660156 31.546875-88.046875 65.214844-125.308593 80.78125l-37.101563 15.5zm147.472656-285.640625 101.144531-67.898438c3.421876-2.300781 7.535157-3.125 11.585938-2.332031 4.046875.796875 7.539062 3.121094 9.839844 6.542969 3.304687 4.925781 3.480468 11.40625.445312 16.511719l-1.761718 2.96875-106.9375 71.789062-3.417969.507813c-5.871094.878906-11.804688-1.742188-15.109375-6.664063-4.746094-7.070312-2.855469-16.679687 4.210937-21.425781zm249.304688 152.800781-101.144531 67.898438c-3.425782 2.300781-7.539063 3.125-11.585938 2.332031-4.046875-.796875-7.539062-3.121094-9.839844-6.546875-3.304687-4.921875-3.480468-11.402344-.449218-16.511719l1.765624-2.96875 106.9375-71.785156 3.417969-.511719c5.878907-.871093 11.804688 1.742188 15.109375 6.667969 4.746094 7.070312 2.855469 16.679688-4.210937 21.425781zm-152.984375 41.035157c-3.121094 9.691406-2.898438 20.21875.59375 29.765624h-73.613282c21.867188-14.203124 43.539063-30.199218 62.140626-45.976562zm37.144531-210.070313 80.257813 119.558594-97.882813 65.710937-80.261719-119.558594zm0 0"/></svg>