<?xml version="1.0" encoding="utf-8"?>
<!-- Generator: Adobe Illustrator 16.0.0, SVG Export Plug-In . SVG Version: 6.00 Build 0)  -->
<!DOCTYPE svg PUBLIC "-//W3C//DTD SVG 1.1//EN" "http://www.w3.org/Graphics/SVG/1.1/DTD/svg11.dtd">
<svg version="1.1" id="Layer_1" xmlns="http://www.w3.org/2000/svg" xmlns:xlink="http://www.w3.org/1999/xlink" x="0px" y="0px"
	 width="512px" height="512px" viewBox="0 0 512 512" enable-background="new 0 0 512 512" xml:space="preserve">
<g id="brand_book_1_">
	<rect x="42.875" y="7.984" fill="#E6E9ED" width="437.125" height="45.344"/>
	<rect x="85.344" y="53.328" fill="#ED5564" width="382.656" height="448.125"/>
	<rect x="41" y="53.328" fill="#656D78" width="44" height="443.672"/>
	<polygon fill="#F6BB42" points="226.844,211.297 187.281,287.469 270,287.469 	"/>
	<polygon fill="#FFCE54" points="295.578,180.125 239.594,288.016 356.719,288.016 	"/>
	<g>
		<path d="M64,42.656L64,42.656c-5.875,0-10.672-4.781-10.672-10.656S58.125,21.344,64,21.344l0,0h405.328
			c5.891,0,10.672-4.781,10.672-10.688C480,4.781,475.219,0,469.328,0H64l0,0l0,0C46.312,0,32,14.328,32,32v480h448V42.656H64z
			 M53.328,74.5V64h21.328v426.656H53.328V74.5z M458.656,490.656H96V64h362.656V490.656z"/>
		<path d="M160,298.656h53.328H288h96l-85.344-149.312l-48.906,85.594L224,192L160,298.656z M347.234,277.344h-97.141l48.562-85.016
			L347.234,277.344z M225.516,277.344h-27.844L224,233.469l13.625,22.688L225.516,277.344z"/>
		<path d="M314.656,384h-85.328c-5.891,0-10.672,4.781-10.672,10.656c0,5.906,4.781,10.688,10.672,10.688h85.328
			c5.906,0,10.672-4.781,10.672-10.688C325.328,388.781,320.562,384,314.656,384z"/>
		<path d="M357.328,341.344H186.656c-5.875,0-10.656,4.766-10.656,10.656s4.781,10.656,10.656,10.656h170.672
			c5.891,0,10.672-4.766,10.672-10.656S363.219,341.344,357.328,341.344z"/>
	</g>
</g>
</svg>
