<svg xmlns="http://www.w3.org/2000/svg" xmlns:xlink="http://www.w3.org/1999/xlink" preserveAspectRatio="xMidYMid" width="24" height="23.91" viewBox="0 0 24 23.91">
  <defs>
    <style>
      .cls-1 {
        fill: #000;
        fill-rule: evenodd;
      }
    </style>
  </defs>
  <path d="M22.215,21.884 L12.196,23.897 C12.131,23.910 12.067,23.916 12.004,23.916 C12.003,23.916 12.002,23.916 12.001,23.916 C12.001,23.916 12.000,23.916 12.000,23.916 C12.000,23.916 11.999,23.916 11.999,23.916 C11.998,23.916 11.997,23.916 11.996,23.916 C11.933,23.916 11.869,23.910 11.804,23.897 L1.784,21.884 C0.784,21.684 0.000,20.724 0.000,19.698 L0.000,1.827 C0.000,1.261 0.239,0.741 0.655,0.398 C1.070,0.056 1.624,-0.074 2.178,0.036 L11.806,1.968 C11.870,1.955 11.931,1.931 12.000,1.931 C12.067,1.931 12.126,1.957 12.189,1.969 L21.824,0.036 C22.373,-0.075 22.930,0.056 23.345,0.398 C23.761,0.741 24.000,1.261 24.000,1.827 L24.000,19.698 C24.000,20.724 23.216,21.684 22.215,21.884 ZM2.000,2.047 L2.000,19.698 C2.000,19.771 2.105,19.900 2.176,19.915 L11.000,21.687 L11.000,3.854 L2.000,2.047 ZM22.000,2.047 L13.000,3.854 L13.000,21.687 L21.823,19.915 C21.895,19.900 22.000,19.771 22.000,19.698 L22.000,2.047 Z" class="cls-1"/>
</svg>
