<svg xmlns="http://www.w3.org/2000/svg" xmlns:xlink="http://www.w3.org/1999/xlink" preserveAspectRatio="xMidYMid" width="18" height="24" viewBox="0 0 18 24">
  <defs>
    <style>
      .cls-1 {
        fill: #000;
        fill-rule: evenodd;
      }
    </style>
  </defs>
  <path d="M18.000,23.000 C18.000,23.553 17.552,24.000 17.000,24.000 L3.182,24.000 C1.552,24.000 0.220,22.763 0.037,21.182 C0.025,21.121 -0.000,21.065 -0.000,21.000 L-0.000,3.546 C-0.000,3.481 0.025,3.425 0.037,3.364 C0.022,3.243 -0.000,3.125 -0.000,3.000 C-0.000,1.346 1.346,0.000 3.000,0.000 L17.000,0.000 C17.552,0.000 18.000,0.447 18.000,1.000 C18.000,1.553 17.552,2.000 17.000,2.000 C16.449,2.000 16.000,2.448 16.000,3.000 C16.000,3.552 16.449,4.000 17.000,4.000 C17.552,4.000 18.000,4.447 18.000,5.000 C18.000,5.097 17.971,5.184 17.945,5.272 C17.971,5.361 18.000,5.448 18.000,5.545 L18.000,23.000 ZM3.000,2.000 C2.449,2.000 2.000,2.448 2.000,3.000 C2.000,3.552 2.449,4.000 3.000,4.000 L14.178,4.000 C14.066,3.687 14.000,3.352 14.000,3.000 C14.000,2.648 14.072,2.315 14.184,2.000 L3.000,2.000 ZM3.000,6.000 C2.648,6.000 2.314,5.928 2.000,5.816 L2.000,20.818 C2.000,21.470 2.530,22.000 3.182,22.000 L16.000,22.000 L16.000,6.000 L3.000,6.000 Z" class="cls-1"/>
</svg>
