<svg height="496pt" viewBox="-1 0 496 496" width="496pt" xmlns="http://www.w3.org/2000/svg"><path d="m130.878906 379.679688c2.234375 4.558593 3.441406 9.601562 3.441406 14.960937v2.878906c0 6.800781-2 13.519531-5.839843 19.191407l-7.039063 10.5625c-6 8.957031-14 16.160156-23.195312 21.039062-9.207032 4.96875-19.605469 7.6875-30.40625 7.6875-14 0-27.519532-4.558594-38.726563-12.878906l-14.792969-11.121094 12.320313-7.359375c18.078125-10.878906 32.71875-26.640625 42.078125-45.527344 2.960938-5.832031 7.449219-10.640625 12.808594-13.914062 5.351562-3.359375 11.671875-5.199219 18.152344-5.199219 5.359374 0 10.398437 1.199219 14.960937 3.441406 7.121094 3.359375 12.878906 9.117188 16.238281 16.238282zm0 0" fill="#f9eb8c"/><path d="m198.320312 336-67.441406 43.679688c-3.359375-7.121094-9.125-12.878907-16.238281-16.238282l43.679687-67.441406zm0 0" fill="#abdbd2"/><path d="m486.320312 25.199219c0 4.320312-1.679687 8.554687-4.71875 11.761719l-259.28125 275.039062-40-40 275.039063-259.28125c3.199219-3.039062 7.441406-4.71875 11.761719-4.71875 4.726562 0 9.046875 1.921875 12.160156 5.039062 3.117188 3.121094 5.039062 7.441407 5.039062 12.160157zm0 0" fill="#abdbd2"/><path d="m158.316406 295.996094 24-24.003906 40 40-24 24zm0 0" fill="#f29e94"/><path d="m228.144531 317.488281 259.3125-275.03125c4.421875-4.695312 6.863281-10.839843 6.863281-17.289062 0-13.878907-11.296874-25.167969-25.167968-25.167969-6.449219 0-12.585938 2.441406-17.28125 6.863281l-275.207032 259.480469-24 24-41.296874 63.480469c-3.726563-1.070313-7.589844-1.824219-11.65625-1.824219-16.246094 0-30.847657 9.023438-38.109376 23.550781-8.761718 17.511719-22.273437 32.113281-39.082031 42.191407l-22.519531 13.515624 24.328125 18.238282c12.464844 9.351562 27.902344 14.503906 43.488281 14.503906 3.550782 0 7.046875-.335938 10.503906-.839844v.839844h207.03125c8.679688 0 17.175782-3.511719 23.3125-9.65625 9.246094-9.246094 21.542969-14.34375 34.625-14.34375h119.03125v16h-119.03125c-8.679687 0-17.175781 3.511719-23.3125 9.65625-9.25 9.246094-21.542968 14.34375-34.625 14.34375h-207.03125v16h207.03125c17.351563 0 33.664063-6.761719 45.9375-19.03125 3.160157-3.160156 7.527344-4.96875 12-4.96875h135.03125v-48h-135.03125c-17.351562 0-33.664062 6.761719-45.9375 19.03125-3.160156 3.152344-7.527343 4.96875-12 4.96875h-172.3125c5.730469-4.59375 10.882813-9.984375 15.074219-16.273438l7.046875-10.566406c4.6875-7.03125 7.160156-15.199218 7.160156-23.640625v-2.910156c0-4.066406-.753906-7.914063-1.824218-11.640625l62.167968-40.25zm-17.136719-5.488281-12.6875 12.6875-28.6875-28.6875 12.6875-12.6875zm251.839844-293.496094c1.710938-1.617187 3.953125-2.503906 6.304688-2.503906 5.054687 0 9.167968 4.121094 9.167968 9.167969 0 2.351562-.886718 4.585937-2.503906 6.304687l-253.664062 269.046875-28.351563-28.351562zm-336.527344 379.015625c0 5.265625-1.542968 10.367188-4.472656 14.761719l-7.046875 10.566406c-10.496093 15.753906-28.066406 25.152344-46.984375 25.152344-12.144531 0-24.175781-4.015625-33.886718-11.296875l-5.289063-3.960937 2.121094-1.269532c19.414062-11.65625 35.023437-28.511718 45.160156-48.761718 4.527344-9.078126 13.644531-14.710938 23.789063-14.710938 14.671874 0 26.609374 11.9375 26.609374 26.609375zm-.617187-36.421875 33.953125-52.449218 26.007812 26.007812-52.441406 33.953125c-2.191406-2.808594-4.703125-5.328125-7.519531-7.511719zm0 0" fill="#1e1713"/></svg>