<svg xmlns="http://www.w3.org/2000/svg" xmlns:xlink="http://www.w3.org/1999/xlink" preserveAspectRatio="xMidYMid" width="24" height="19.87" viewBox="0 0 24 19.87">
  <defs>
    <style>
      .cls-1 {
        fill: #000;
        fill-rule: evenodd;
      }
    </style>
  </defs>
  <path d="M22.000,19.881 L2.000,19.881 C0.897,19.881 0.000,18.990 0.000,17.894 L0.000,1.995 C0.000,0.899 0.897,0.007 2.000,0.007 L9.000,0.007 C9.031,0.007 9.057,0.022 9.087,0.025 C9.155,0.031 9.220,0.045 9.287,0.065 C9.352,0.085 9.412,0.108 9.471,0.140 C9.498,0.155 9.528,0.157 9.555,0.174 L12.356,2.030 L22.000,2.030 C23.103,2.030 24.000,2.886 24.000,3.982 L24.000,17.894 C24.000,18.990 23.103,19.881 22.000,19.881 ZM22.000,3.982 L12.000,3.982 C12.000,3.982 12.000,3.982 11.999,3.982 C11.999,3.982 11.999,3.982 11.999,3.982 C11.882,3.982 11.767,3.954 11.654,3.913 C11.619,3.900 11.587,3.883 11.554,3.866 C11.518,3.848 11.480,3.838 11.445,3.815 L8.698,1.995 L2.000,1.995 L2.000,18.030 L22.000,18.030 L22.000,3.982 Z" class="cls-1"/>
</svg>
