<?xml version="1.0" encoding="utf-8"?>
<!-- Generator: Adobe Illustrator 23.1.0, SVG Export Plug-In . SVG Version: 6.00 Build 0)  -->
<svg version="1.1" id="Layer_1" xmlns="http://www.w3.org/2000/svg" xmlns:xlink="http://www.w3.org/1999/xlink" x="0px" y="0px"
	 viewBox="0 0 472.2 168" style="enable-background:new 0 0 472.2 168;" xml:space="preserve">
<style type="text/css">
	.st0{fill:#003A70;}
	.st1{fill:#D7282F;}
	.st2{fill:#636569;}
	.st3{display:none;}
	.st4{display:inline;fill:#003A70;}
	.st5{display:inline;}
	.st6{fill:#FFFFFF;}
	.st7{display:inline;fill:#D7282F;}
	.st8{fill:#010202;}
	.st9{fill:#4D4D4D;}
	.st10{fill:#808080;}
</style>
<g id="OFICIAL">
	<path class="st0" d="M137.3,94.8c-19.8,0-36-16.1-36-36c0-19.8,16.1-36,36-36v16c-11,0-20,9-20,20s9,20,20,20s20-9,20-20h16
		C173.3,78.7,157.1,94.8,137.3,94.8z M311.3,94.8c-19.8,0-36-16.1-36-36V24.6h16v34.2c0,11,9,20,20,20s20-9,20-20V24.6h16v34.2
		C347.3,78.7,331.1,94.8,311.3,94.8z"/>
	<path class="st1" d="M181.4,50.7h-16c0-5.9-2.6-11.4-7-15.2c-3.6-3.1-8.2-4.8-12.9-4.8v-16c8.5,0,16.8,3,23.3,8.6
		C176.8,30.1,181.4,40.1,181.4,50.7z"/>
	<path class="st0" d="M92.2,40.6v-16H24.6V93h16V74.8h42.7v-16H40.6V40.6H92.2z M432,24.6L404.2,55l-27.8-30.4h-15.5V93h16V48.8
		l23.8,26h7l23.8-26V93h16V24.6H432z M264.5,93l-18.1-20.2c9-3.8,15.4-12.8,15.4-23.2c0-13.8-11.3-25.1-25.1-25.1h-42.5V93h16V74.8
		h16.5L243,93H264.5z M210.1,40.6h26.5c5,0,9.1,4.1,9.1,9.1s-4.1,9.1-9.1,9.1h-26.5C210.1,58.8,210.1,40.6,210.1,40.6z"/>
	<g>
		<path class="st2" d="M27.1,141.2c-1.5-1.7-2.3-4-2.5-6.9c0-0.6,0-1.7,0-3.1c0-1.4,0-2.5,0-3.2c0.1-2.9,0.9-5.2,2.5-6.9
			c1.5-1.7,3.8-2.6,6.9-2.6c2.1,0,3.8,0.4,5.2,1.1s2.4,1.7,3.1,2.9c0.7,1.2,1,2.3,1.1,3.6v0.1c0,0.2-0.1,0.3-0.2,0.5
			s-0.3,0.2-0.5,0.2h-0.7c-0.4,0-0.7-0.3-0.8-0.7c-0.5-2-1.3-3.4-2.4-4.2c-1.2-0.8-2.8-1.2-4.8-1.2c-2.2,0-3.9,0.6-5.1,1.9
			c-1.2,1.2-1.9,3.2-2,5.7c0,0.6,0,1.6,0,2.9s0,2.3,0,3c0.1,2.6,0.8,4.5,2,5.7c1.2,1.2,2.9,1.9,5.1,1.9c2,0,3.6-0.4,4.8-1.2
			c1.2-0.8,2-2.2,2.4-4.2c0.1-0.5,0.3-0.7,0.8-0.7h0.7c0.2,0,0.4,0.1,0.5,0.2c0.2,0.1,0.2,0.3,0.2,0.5c-0.1,1.2-0.4,2.4-1.1,3.6
			s-1.7,2.1-3.1,2.9c-1.4,0.8-3.1,1.1-5.2,1.1C30.9,143.8,28.6,142.9,27.1,141.2z M47.9,134.1c0-0.7,0-1.7,0-2.9s0-2.3,0-2.9
			c0.1-3.2,1-5.6,2.6-7.2s3.9-2.5,6.7-2.5s5,0.8,6.7,2.5c1.6,1.6,2.5,4.1,2.6,7.2c0.1,1.4,0.1,2.4,0.1,2.9s0,1.6-0.1,2.9
			c-0.2,6.5-3.3,9.7-9.3,9.7S48,140.5,47.9,134.1z M62.2,139.7c1.3-1.3,1.9-3.2,2-5.9c0.1-1.4,0.1-2.3,0.1-2.8c0-0.4,0-1.4-0.1-2.8
			c-0.1-2.6-0.8-4.6-2-5.8c-1.3-1.3-2.9-1.9-5-1.9s-3.8,0.6-5,1.9s-2,3.2-2,5.8c0,0.7,0,1.6,0,2.8s0,2.1,0,2.8
			c0.1,2.6,0.8,4.6,2,5.9c1.3,1.3,2.9,1.9,5,1.9C59.3,141.6,61,141,62.2,139.7z M72.3,143.2c-0.1-0.1-0.2-0.3-0.2-0.6v-23
			c0-0.2,0.1-0.4,0.2-0.6s0.3-0.2,0.6-0.2h0.7c0.3,0,0.6,0.1,0.7,0.4l13,19.8v-19.4c0-0.2,0.1-0.4,0.2-0.6s0.3-0.2,0.6-0.2h0.6
			c0.3,0,0.5,0.1,0.6,0.2s0.2,0.3,0.2,0.6v23c0,0.2-0.1,0.4-0.2,0.6c-0.1,0.1-0.3,0.2-0.6,0.2h-0.8c-0.3,0-0.6-0.1-0.7-0.4
			l-12.9-19.8v19.4c0,0.2-0.1,0.4-0.2,0.6s-0.3,0.2-0.6,0.2h-0.6C72.6,143.4,72.4,143.3,72.3,143.2z M96,143.2
			c-0.1-0.1-0.2-0.3-0.2-0.6v-23c0-0.2,0.1-0.4,0.2-0.6s0.3-0.2,0.6-0.2h0.6c0.3,0,0.5,0.1,0.6,0.2s0.2,0.3,0.2,0.6v10.3h13.6v-10.3
			c0-0.2,0.1-0.4,0.2-0.6s0.3-0.2,0.6-0.2h0.6c0.3,0,0.5,0.1,0.6,0.2s0.2,0.3,0.2,0.6v23c0,0.2-0.1,0.4-0.2,0.6s-0.3,0.2-0.6,0.2
			h-0.6c-0.2,0-0.4-0.1-0.6-0.2s-0.2-0.3-0.2-0.6V132H98v10.6c0,0.2-0.1,0.4-0.2,0.6s-0.3,0.2-0.6,0.2h-0.6
			C96.4,143.4,96.2,143.3,96,143.2z M120.4,143.2c-0.1-0.1-0.2-0.3-0.2-0.6v-23c0-0.2,0.1-0.4,0.2-0.6s0.3-0.2,0.6-0.2h13.7
			c0.3,0,0.5,0.1,0.6,0.2s0.2,0.3,0.2,0.6v0.5c0,0.2-0.1,0.4-0.2,0.6s-0.4,0.2-0.6,0.2h-12.3v9h11.5c0.3,0,0.5,0.1,0.6,0.2
			s0.2,0.3,0.2,0.6v0.5c0,0.2-0.1,0.4-0.2,0.6s-0.4,0.2-0.6,0.2h-11.5v9.3h12.5c0.3,0,0.5,0.1,0.6,0.2s0.2,0.3,0.2,0.6v0.5
			c0,0.2-0.1,0.4-0.2,0.6s-0.4,0.2-0.6,0.2h-14C120.7,143.4,120.5,143.3,120.4,143.2L120.4,143.2z M142.3,141.2
			c-1.5-1.7-2.3-4-2.5-6.9c0-0.6,0-1.7,0-3.1c0-1.4,0-2.5,0-3.2c0.1-2.9,0.9-5.2,2.5-6.9s3.8-2.6,6.9-2.6c2.1,0,3.8,0.4,5.2,1.1
			c1.4,0.8,2.4,1.7,3.1,2.9c0.7,1.2,1,2.3,1.1,3.6v0.1c0,0.2-0.1,0.3-0.2,0.5s-0.3,0.2-0.5,0.2h-0.7c-0.4,0-0.7-0.3-0.8-0.7
			c-0.4-2-1.3-3.4-2.4-4.2c-1.2-0.8-2.8-1.2-4.8-1.2c-2.2,0-3.9,0.6-5.1,1.9s-1.9,3.2-2,5.7c0,0.6,0,1.6,0,2.9s0,2.3,0,3
			c0.1,2.6,0.8,4.5,2,5.7c1.2,1.2,2.9,1.9,5.1,1.9c2,0,3.6-0.4,4.8-1.2c1.2-0.8,2-2.2,2.4-4.2c0.1-0.5,0.4-0.7,0.8-0.7h0.7
			c0.2,0,0.4,0.1,0.5,0.2c0.1,0.1,0.2,0.3,0.2,0.5c-0.1,1.2-0.4,2.4-1.1,3.6s-1.7,2.1-3.1,2.9c-1.4,0.8-3.1,1.1-5.2,1.1
			C146.1,143.8,143.8,142.9,142.3,141.2L142.3,141.2z M163.8,143.2c-0.1-0.1-0.2-0.3-0.2-0.6v-23.1c0-0.2,0.1-0.4,0.2-0.6
			s0.3-0.2,0.6-0.2h0.7c0.2,0,0.4,0.1,0.6,0.2s0.2,0.3,0.2,0.6v23.1c0,0.2-0.1,0.4-0.2,0.6s-0.3,0.2-0.6,0.2h-0.7
			C164.1,143.4,163.9,143.3,163.8,143.2z M172.4,143.2c-0.1-0.1-0.2-0.3-0.2-0.6v-23c0-0.3,0.1-0.5,0.2-0.6s0.4-0.2,0.6-0.2h0.9
			c0.4,0,0.6,0.2,0.7,0.5l8,15.5l8-15.5c0.2-0.3,0.4-0.5,0.7-0.5h0.8c0.3,0,0.5,0.1,0.6,0.2s0.2,0.3,0.2,0.6v23
			c0,0.2-0.1,0.4-0.2,0.6s-0.4,0.2-0.6,0.2h-0.6c-0.2,0-0.4-0.1-0.6-0.2s-0.2-0.3-0.2-0.6v-19.1l-6.7,13.2c-0.2,0.5-0.6,0.7-1.1,0.7
			h-0.8c-0.5,0-0.9-0.2-1.1-0.7l-6.7-13.2v19.1c0,0.2-0.1,0.4-0.2,0.6s-0.3,0.2-0.6,0.2H173C172.7,143.4,172.5,143.3,172.4,143.2
			L172.4,143.2z M199.5,143.2c-0.1-0.1-0.2-0.3-0.2-0.6v-23c0-0.2,0.1-0.4,0.2-0.6s0.3-0.2,0.6-0.2h13.7c0.3,0,0.5,0.1,0.6,0.2
			s0.2,0.3,0.2,0.6v0.5c0,0.2-0.1,0.4-0.2,0.6s-0.4,0.2-0.6,0.2h-12.3v9H213c0.3,0,0.5,0.1,0.6,0.2s0.2,0.3,0.2,0.6v0.5
			c0,0.2-0.1,0.4-0.2,0.6s-0.4,0.2-0.6,0.2h-11.5v9.3h12.6c0.3,0,0.5,0.1,0.6,0.2s0.2,0.3,0.2,0.6v0.5c0,0.2-0.1,0.4-0.2,0.6
			s-0.4,0.2-0.6,0.2h-14C199.8,143.4,199.7,143.3,199.5,143.2L199.5,143.2z M220.2,143.2c-0.1-0.1-0.2-0.3-0.2-0.6v-23
			c0-0.2,0.1-0.4,0.2-0.6s0.3-0.2,0.6-0.2h0.7c0.3,0,0.6,0.1,0.7,0.4l13,19.8v-19.4c0-0.2,0.1-0.4,0.2-0.6s0.3-0.2,0.6-0.2h0.6
			c0.3,0,0.5,0.1,0.6,0.2s0.2,0.3,0.2,0.6v23c0,0.2-0.1,0.4-0.2,0.6c-0.1,0.1-0.3,0.2-0.6,0.2h-0.8c-0.3,0-0.6-0.1-0.7-0.4
			l-12.9-19.8v19.4c0,0.2-0.1,0.4-0.2,0.6s-0.4,0.2-0.6,0.2h-0.6C220.5,143.4,220.3,143.3,220.2,143.2L220.2,143.2z M249.9,143.2
			c-0.1-0.1-0.2-0.3-0.2-0.6v-21.7h-7c-0.2,0-0.4-0.1-0.6-0.2s-0.2-0.3-0.2-0.6v-0.5c0-0.2,0.1-0.4,0.2-0.6s0.3-0.2,0.6-0.2h16.1
			c0.3,0,0.5,0.1,0.6,0.2s0.2,0.3,0.2,0.6v0.5c0,0.2-0.1,0.4-0.2,0.6c-0.1,0.1-0.4,0.2-0.6,0.2h-6.9v21.7c0,0.2-0.1,0.4-0.2,0.6
			s-0.4,0.2-0.6,0.2h-0.6C250.3,143.4,250.1,143.3,249.9,143.2L249.9,143.2z M262.6,134.1c0-0.7,0-1.7,0-2.9s0-2.3,0-2.9
			c0.1-3.2,1-5.6,2.6-7.2s3.9-2.5,6.7-2.5s5,0.8,6.7,2.5c1.6,1.6,2.5,4.1,2.6,7.2c0,1.4,0.1,2.4,0.1,2.9s0,1.6-0.1,2.9
			c-0.2,6.5-3.3,9.7-9.3,9.7S262.8,140.5,262.6,134.1z M276.9,139.7c1.3-1.3,1.9-3.2,2-5.9c0-1.4,0.1-2.3,0.1-2.8
			c0-0.4,0-1.4-0.1-2.8c-0.1-2.6-0.8-4.6-2-5.8c-1.3-1.3-2.9-1.9-5-1.9s-3.8,0.6-5,1.9s-2,3.2-2,5.8c0,0.7,0,1.6,0,2.8s0,2.1,0,2.8
			c0.1,2.6,0.8,4.6,2,5.9c1.3,1.3,2.9,1.9,5,1.9C274,141.6,275.7,141,276.9,139.7L276.9,139.7z M297.8,141.9c-1.6-1.2-2.4-3-2.5-5.4
			c0-0.2,0.1-0.4,0.2-0.6s0.3-0.2,0.5-0.2h0.7c0.2,0,0.4,0.1,0.5,0.2c0.1,0.1,0.2,0.3,0.2,0.5c0.1,1.7,0.8,3,2,3.9s2.6,1.3,4.4,1.3
			c2,0,3.6-0.7,4.7-2c1.1-1.3,1.6-3.1,1.6-5.3v-13.5h-13c-0.2,0-0.4-0.1-0.6-0.2c-0.1-0.1-0.2-0.3-0.2-0.6v-0.6
			c0-0.2,0.1-0.4,0.2-0.6c0.1-0.1,0.3-0.2,0.6-0.2h14.4c0.3,0,0.5,0.1,0.6,0.2s0.2,0.3,0.2,0.6v14.8c0,2.8-0.7,5.1-2.2,6.8
			c-1.5,1.7-3.6,2.6-6.3,2.6C301.3,143.8,299.3,143.1,297.8,141.9L297.8,141.9z M320.6,141.3c-1.6-1.6-2.3-4.1-2.3-7.4v-14.3
			c0-0.2,0.1-0.4,0.2-0.6c0.1-0.2,0.3-0.2,0.6-0.2h0.6c0.3,0,0.5,0.1,0.6,0.2s0.2,0.3,0.2,0.6V134c0,2.6,0.6,4.5,1.8,5.8
			s2.9,1.9,5.1,1.9c2.2,0,3.8-0.6,5-1.9c1.2-1.3,1.8-3.2,1.8-5.8v-14.4c0-0.3,0.1-0.5,0.2-0.6c0.1-0.1,0.4-0.2,0.6-0.2h0.6
			c0.2,0,0.4,0.1,0.6,0.2c0.1,0.2,0.2,0.3,0.2,0.6v14.3c0,3.4-0.8,5.8-2.3,7.4c-1.5,1.6-3.8,2.4-6.7,2.4
			C324.4,143.8,322.2,142.9,320.6,141.3z M342.8,143.2c-0.1-0.1-0.2-0.3-0.2-0.6v-23c0-0.2,0.1-0.4,0.2-0.6c0.1-0.2,0.3-0.2,0.6-0.2
			h8.2c2.5,0,4.5,0.6,5.9,1.8c1.4,1.2,2.1,3,2.1,5.3c0,1.8-0.5,3.3-1.4,4.5c-0.9,1.1-2.2,1.9-3.9,2.3l5.7,9.6
			c0.1,0.1,0.1,0.3,0.1,0.4c0,0.2-0.1,0.4-0.2,0.5c-0.1,0.1-0.3,0.2-0.5,0.2H359c-0.4,0-0.6-0.1-0.8-0.2c-0.2-0.1-0.4-0.4-0.5-0.7
			l-5.6-9.5h-7.2v9.6c0,0.2-0.1,0.4-0.2,0.6c-0.1,0.1-0.4,0.2-0.6,0.2h-0.6C343.1,143.4,343,143.3,342.8,143.2L342.8,143.2z
			 M351.4,130.9c2,0,3.6-0.4,4.5-1.3c1-0.8,1.5-2.1,1.5-3.7c0-1.7-0.5-2.9-1.5-3.7c-1-0.8-2.5-1.3-4.5-1.3h-6.6v10H351.4z
			 M365.3,143.2c-0.1-0.1-0.2-0.3-0.2-0.6v-23.1c0-0.2,0.1-0.4,0.2-0.6c0.1-0.1,0.3-0.2,0.6-0.2h0.7c0.2,0,0.4,0.1,0.6,0.2
			c0.1,0.1,0.2,0.3,0.2,0.6v23.1c0,0.2-0.1,0.4-0.2,0.6c-0.1,0.1-0.3,0.2-0.6,0.2h-0.7C365.6,143.4,365.4,143.3,365.3,143.2z
			 M365.2,116.5c0-0.2,0.1-0.3,0.2-0.5l2.4-2.9c0.2-0.3,0.4-0.4,0.6-0.5s0.4-0.1,0.7-0.1h1.6c0.4,0,0.7,0.2,0.7,0.7
			c0,0.2-0.1,0.3-0.2,0.4l-3.8,3.1c-0.2,0.1-0.4,0.2-0.5,0.3c-0.1,0.1-0.3,0.1-0.6,0.1h-0.5C365.4,117,365.2,116.8,365.2,116.5
			L365.2,116.5z M374.2,143.2c-0.1-0.1-0.2-0.3-0.2-0.6v-23c0-0.2,0.1-0.4,0.2-0.6c0.1-0.2,0.3-0.2,0.6-0.2h7.5
			c2.4,0,4.4,0.4,5.8,1.1c1.4,0.7,2.4,1.8,3,3.2c0.6,1.4,0.9,3.1,1,5.3c0,0.7,0,1.6,0,2.8c0,1.2,0,2.1,0,2.8c0,2.3-0.4,4.1-1,5.4
			s-1.6,2.4-3,3.1c-1.4,0.7-3.3,1-5.7,1h-7.7C374.5,143.4,374.3,143.3,374.2,143.2L374.2,143.2z M382.3,141.3c1.9,0,3.4-0.3,4.4-0.8
			c1.1-0.5,1.9-1.3,2.3-2.4s0.7-2.6,0.8-4.4c0-0.7,0-1.6,0-2.6c0-1,0-1.9,0-2.6c0-2.6-0.7-4.5-1.9-5.8c-1.2-1.2-3.1-1.8-5.9-1.8
			h-5.9v20.4L382.3,141.3L382.3,141.3z M397.9,143.2c-0.1-0.1-0.2-0.3-0.2-0.6v-23.1c0-0.2,0.1-0.4,0.2-0.6c0.1-0.1,0.3-0.2,0.6-0.2
			h0.7c0.2,0,0.4,0.1,0.6,0.2c0.1,0.1,0.2,0.3,0.2,0.6v23.1c0,0.2-0.1,0.4-0.2,0.6c-0.1,0.1-0.3,0.2-0.6,0.2h-0.7
			C398.2,143.4,398,143.3,397.9,143.2z M407.9,141.2c-1.5-1.7-2.3-4-2.5-6.9c0-0.6,0-1.7,0-3.1c0-1.4,0-2.5,0-3.2
			c0.1-2.9,0.9-5.2,2.5-6.9s3.8-2.6,6.9-2.6c2.1,0,3.8,0.4,5.2,1.1s2.4,1.7,3.1,2.9c0.7,1.2,1,2.3,1.1,3.6v0.1
			c0,0.2-0.1,0.3-0.2,0.5c-0.1,0.1-0.3,0.2-0.5,0.2h-0.7c-0.4,0-0.7-0.3-0.8-0.7c-0.5-2-1.3-3.4-2.4-4.2c-1.2-0.8-2.8-1.2-4.8-1.2
			c-2.2,0-3.9,0.6-5.1,1.9s-1.9,3.2-2,5.7c0,0.6,0,1.6,0,2.9s0,2.3,0,3c0.1,2.6,0.8,4.5,2,5.7c1.2,1.2,2.9,1.9,5.1,1.9
			c2,0,3.6-0.4,4.8-1.2c1.2-0.8,2-2.2,2.4-4.2c0.1-0.5,0.4-0.7,0.8-0.7h0.7c0.2,0,0.4,0.1,0.5,0.2c0.1,0.1,0.2,0.3,0.2,0.5
			c-0.1,1.2-0.4,2.4-1.1,3.6c-0.7,1.2-1.7,2.1-3.1,2.9c-1.4,0.8-3.1,1.1-5.2,1.1C411.7,143.8,409.5,142.9,407.9,141.2z M428.7,134.1
			c0-0.7,0-1.7,0-2.9s0-2.3,0-2.9c0.1-3.2,1-5.6,2.6-7.2s3.9-2.5,6.7-2.5s5,0.8,6.7,2.5c1.6,1.6,2.5,4.1,2.6,7.2
			c0,1.4,0.1,2.4,0.1,2.9s0,1.6-0.1,2.9c-0.2,6.5-3.3,9.7-9.3,9.7S428.9,140.5,428.7,134.1z M443.1,139.7c1.3-1.3,1.9-3.2,2-5.9
			c0-1.4,0.1-2.3,0.1-2.8c0-0.4,0-1.4-0.1-2.8c-0.1-2.6-0.8-4.6-2-5.8c-1.3-1.3-2.9-1.9-5-1.9s-3.8,0.6-5,1.9s-2,3.2-2,5.8
			c0,0.7,0,1.6,0,2.8s0,2.1,0,2.8c0.1,2.6,0.8,4.6,2,5.9c1.3,1.3,2.9,1.9,5,1.9C440.1,141.6,441.8,141,443.1,139.7L443.1,139.7z"/>
	</g>
</g>
<g id="Duotone" class="st3">
	<path class="st4" d="M-47.4-57.3h566.9v273H-47.4V-57.3z M539.5-57.3h566.9v224.1H539.5V-57.3z"/>
	<g class="st5">
		<path class="st6" d="M137.3,94.8c-19.8,0-36-16.1-36-36c0-19.8,16.1-36,36-36v16c-11,0-20,9-20,20s9,20,20,20s20-9,20-20h16
			C173.3,78.7,157.1,94.8,137.3,94.8z M311.3,94.8c-19.8,0-36-16.1-36-36V24.6h16v34.2c0,11,9,20,20,20s20-9,20-20V24.6h16v34.2
			C347.3,78.7,331.1,94.8,311.3,94.8z"/>
		<path class="st1" d="M181.4,50.7h-16c0-5.9-2.6-11.4-7-15.2c-3.6-3.1-8.2-4.8-12.9-4.8v-16c8.5,0,16.8,3,23.3,8.6
			C176.8,30.1,181.4,40.1,181.4,50.7z"/>
		<path class="st6" d="M92.2,40.6v-16H24.6V93h16V74.8h42.7v-16H40.6V40.6H92.2z M432,24.6L404.2,55l-27.8-30.4h-15.5V93h16V48.8
			l23.8,26h7l23.8-26V93h16V24.6H432z M264.5,93l-18.1-20.2c9-3.8,15.4-12.8,15.4-23.2c0-13.8-11.3-25.1-25.1-25.1h-42.5V93h16V74.8
			h16.5L243,93H264.5z M210.1,40.6h26.5c5,0,9.1,4.1,9.1,9.1s-4.1,9.1-9.1,9.1h-26.5C210.1,58.8,210.1,40.6,210.1,40.6z"/>
		<g>
			<path class="st6" d="M27.1,141.2c-1.5-1.7-2.3-4-2.5-6.9c0-0.6,0-1.7,0-3.1c0-1.4,0-2.5,0-3.2c0.1-2.9,0.9-5.2,2.5-6.9
				c1.5-1.7,3.8-2.6,6.9-2.6c2.1,0,3.8,0.4,5.2,1.1s2.4,1.7,3.1,2.9c0.7,1.2,1,2.3,1.1,3.6v0.1c0,0.2-0.1,0.3-0.2,0.5
				s-0.3,0.2-0.5,0.2h-0.7c-0.4,0-0.7-0.3-0.8-0.7c-0.5-2-1.3-3.4-2.4-4.2c-1.2-0.8-2.8-1.2-4.8-1.2c-2.2,0-3.9,0.6-5.1,1.9
				c-1.2,1.2-1.9,3.2-2,5.7c0,0.6,0,1.6,0,2.9s0,2.3,0,3c0.1,2.6,0.8,4.5,2,5.7c1.2,1.2,2.9,1.9,5.1,1.9c2,0,3.6-0.4,4.8-1.2
				c1.2-0.8,2-2.2,2.4-4.2c0.1-0.5,0.3-0.7,0.8-0.7h0.7c0.2,0,0.4,0.1,0.5,0.2c0.2,0.1,0.2,0.3,0.2,0.5c-0.1,1.2-0.4,2.4-1.1,3.6
				s-1.7,2.1-3.1,2.9c-1.4,0.8-3.1,1.1-5.2,1.1C30.9,143.8,28.6,142.9,27.1,141.2z M47.9,134.1c0-0.7,0-1.7,0-2.9s0-2.3,0-2.9
				c0.1-3.2,1-5.6,2.6-7.2s3.9-2.5,6.7-2.5s5,0.8,6.7,2.5c1.6,1.6,2.5,4.1,2.6,7.2c0.1,1.4,0.1,2.4,0.1,2.9s0,1.6-0.1,2.9
				c-0.2,6.5-3.3,9.7-9.3,9.7S48,140.5,47.9,134.1z M62.2,139.7c1.3-1.3,1.9-3.2,2-5.9c0.1-1.4,0.1-2.3,0.1-2.8c0-0.4,0-1.4-0.1-2.8
				c-0.1-2.6-0.8-4.6-2-5.8c-1.3-1.3-2.9-1.9-5-1.9s-3.8,0.6-5,1.9s-2,3.2-2,5.8c0,0.7,0,1.6,0,2.8s0,2.1,0,2.8
				c0.1,2.6,0.8,4.6,2,5.9c1.3,1.3,2.9,1.9,5,1.9C59.3,141.6,61,141,62.2,139.7z M72.3,143.2c-0.1-0.1-0.2-0.3-0.2-0.6v-23
				c0-0.2,0.1-0.4,0.2-0.6s0.3-0.2,0.6-0.2h0.7c0.3,0,0.6,0.1,0.7,0.4l13,19.8v-19.4c0-0.2,0.1-0.4,0.2-0.6s0.3-0.2,0.6-0.2h0.6
				c0.3,0,0.5,0.1,0.6,0.2s0.2,0.3,0.2,0.6v23c0,0.2-0.1,0.4-0.2,0.6c-0.1,0.1-0.3,0.2-0.6,0.2h-0.8c-0.3,0-0.6-0.1-0.7-0.4
				l-12.9-19.8v19.4c0,0.2-0.1,0.4-0.2,0.6s-0.3,0.2-0.6,0.2h-0.6C72.6,143.4,72.4,143.3,72.3,143.2z M96,143.2
				c-0.1-0.1-0.2-0.3-0.2-0.6v-23c0-0.2,0.1-0.4,0.2-0.6s0.3-0.2,0.6-0.2h0.6c0.3,0,0.5,0.1,0.6,0.2s0.2,0.3,0.2,0.6v10.3h13.6
				v-10.3c0-0.2,0.1-0.4,0.2-0.6s0.3-0.2,0.6-0.2h0.6c0.3,0,0.5,0.1,0.6,0.2s0.2,0.3,0.2,0.6v23c0,0.2-0.1,0.4-0.2,0.6
				s-0.3,0.2-0.6,0.2h-0.6c-0.2,0-0.4-0.1-0.6-0.2s-0.2-0.3-0.2-0.6V132H98v10.6c0,0.2-0.1,0.4-0.2,0.6s-0.3,0.2-0.6,0.2h-0.6
				C96.4,143.4,96.2,143.3,96,143.2z M120.4,143.2c-0.1-0.1-0.2-0.3-0.2-0.6v-23c0-0.2,0.1-0.4,0.2-0.6s0.3-0.2,0.6-0.2h13.7
				c0.3,0,0.5,0.1,0.6,0.2s0.2,0.3,0.2,0.6v0.5c0,0.2-0.1,0.4-0.2,0.6s-0.4,0.2-0.6,0.2h-12.3v9h11.5c0.3,0,0.5,0.1,0.6,0.2
				s0.2,0.3,0.2,0.6v0.5c0,0.2-0.1,0.4-0.2,0.6s-0.4,0.2-0.6,0.2h-11.5v9.3h12.5c0.3,0,0.5,0.1,0.6,0.2s0.2,0.3,0.2,0.6v0.5
				c0,0.2-0.1,0.4-0.2,0.6s-0.4,0.2-0.6,0.2h-14C120.7,143.4,120.5,143.3,120.4,143.2L120.4,143.2z M142.3,141.2
				c-1.5-1.7-2.3-4-2.5-6.9c0-0.6,0-1.7,0-3.1c0-1.4,0-2.5,0-3.2c0.1-2.9,0.9-5.2,2.5-6.9s3.8-2.6,6.9-2.6c2.1,0,3.8,0.4,5.2,1.1
				c1.4,0.8,2.4,1.7,3.1,2.9c0.7,1.2,1,2.3,1.1,3.6v0.1c0,0.2-0.1,0.3-0.2,0.5s-0.3,0.2-0.5,0.2h-0.7c-0.4,0-0.7-0.3-0.8-0.7
				c-0.4-2-1.3-3.4-2.4-4.2c-1.2-0.8-2.8-1.2-4.8-1.2c-2.2,0-3.9,0.6-5.1,1.9s-1.9,3.2-2,5.7c0,0.6,0,1.6,0,2.9s0,2.3,0,3
				c0.1,2.6,0.8,4.5,2,5.7c1.2,1.2,2.9,1.9,5.1,1.9c2,0,3.6-0.4,4.8-1.2c1.2-0.8,2-2.2,2.4-4.2c0.1-0.5,0.4-0.7,0.8-0.7h0.7
				c0.2,0,0.4,0.1,0.5,0.2c0.1,0.1,0.2,0.3,0.2,0.5c-0.1,1.2-0.4,2.4-1.1,3.6s-1.7,2.1-3.1,2.9c-1.4,0.8-3.1,1.1-5.2,1.1
				C146.1,143.8,143.8,142.9,142.3,141.2L142.3,141.2z M163.8,143.2c-0.1-0.1-0.2-0.3-0.2-0.6v-23.1c0-0.2,0.1-0.4,0.2-0.6
				s0.3-0.2,0.6-0.2h0.7c0.2,0,0.4,0.1,0.6,0.2s0.2,0.3,0.2,0.6v23.1c0,0.2-0.1,0.4-0.2,0.6s-0.3,0.2-0.6,0.2h-0.7
				C164.1,143.4,163.9,143.3,163.8,143.2z M172.4,143.2c-0.1-0.1-0.2-0.3-0.2-0.6v-23c0-0.3,0.1-0.5,0.2-0.6s0.4-0.2,0.6-0.2h0.9
				c0.4,0,0.6,0.2,0.7,0.5l8,15.5l8-15.5c0.2-0.3,0.4-0.5,0.7-0.5h0.8c0.3,0,0.5,0.1,0.6,0.2s0.2,0.3,0.2,0.6v23
				c0,0.2-0.1,0.4-0.2,0.6s-0.4,0.2-0.6,0.2h-0.6c-0.2,0-0.4-0.1-0.6-0.2s-0.2-0.3-0.2-0.6v-19.1l-6.7,13.2
				c-0.2,0.5-0.6,0.7-1.1,0.7h-0.8c-0.5,0-0.9-0.2-1.1-0.7l-6.7-13.2v19.1c0,0.2-0.1,0.4-0.2,0.6s-0.3,0.2-0.6,0.2H173
				C172.7,143.4,172.5,143.3,172.4,143.2L172.4,143.2z M199.5,143.2c-0.1-0.1-0.2-0.3-0.2-0.6v-23c0-0.2,0.1-0.4,0.2-0.6
				s0.3-0.2,0.6-0.2h13.7c0.3,0,0.5,0.1,0.6,0.2s0.2,0.3,0.2,0.6v0.5c0,0.2-0.1,0.4-0.2,0.6s-0.4,0.2-0.6,0.2h-12.3v9H213
				c0.3,0,0.5,0.1,0.6,0.2s0.2,0.3,0.2,0.6v0.5c0,0.2-0.1,0.4-0.2,0.6s-0.4,0.2-0.6,0.2h-11.5v9.3h12.6c0.3,0,0.5,0.1,0.6,0.2
				s0.2,0.3,0.2,0.6v0.5c0,0.2-0.1,0.4-0.2,0.6s-0.4,0.2-0.6,0.2h-14C199.8,143.4,199.7,143.3,199.5,143.2L199.5,143.2z
				 M220.2,143.2c-0.1-0.1-0.2-0.3-0.2-0.6v-23c0-0.2,0.1-0.4,0.2-0.6s0.3-0.2,0.6-0.2h0.7c0.3,0,0.6,0.1,0.7,0.4l13,19.8v-19.4
				c0-0.2,0.1-0.4,0.2-0.6s0.3-0.2,0.6-0.2h0.6c0.3,0,0.5,0.1,0.6,0.2s0.2,0.3,0.2,0.6v23c0,0.2-0.1,0.4-0.2,0.6
				c-0.1,0.1-0.3,0.2-0.6,0.2h-0.8c-0.3,0-0.6-0.1-0.7-0.4l-12.9-19.8v19.4c0,0.2-0.1,0.4-0.2,0.6s-0.4,0.2-0.6,0.2h-0.6
				C220.5,143.4,220.3,143.3,220.2,143.2L220.2,143.2z M249.9,143.2c-0.1-0.1-0.2-0.3-0.2-0.6v-21.7h-7c-0.2,0-0.4-0.1-0.6-0.2
				s-0.2-0.3-0.2-0.6v-0.5c0-0.2,0.1-0.4,0.2-0.6s0.3-0.2,0.6-0.2h16.1c0.3,0,0.5,0.1,0.6,0.2s0.2,0.3,0.2,0.6v0.5
				c0,0.2-0.1,0.4-0.2,0.6c-0.1,0.1-0.4,0.2-0.6,0.2h-6.9v21.7c0,0.2-0.1,0.4-0.2,0.6s-0.4,0.2-0.6,0.2h-0.6
				C250.3,143.4,250.1,143.3,249.9,143.2L249.9,143.2z M262.6,134.1c0-0.7,0-1.7,0-2.9s0-2.3,0-2.9c0.1-3.2,1-5.6,2.6-7.2
				s3.9-2.5,6.7-2.5s5,0.8,6.7,2.5c1.6,1.6,2.5,4.1,2.6,7.2c0,1.4,0.1,2.4,0.1,2.9s0,1.6-0.1,2.9c-0.2,6.5-3.3,9.7-9.3,9.7
				S262.8,140.5,262.6,134.1z M276.9,139.7c1.3-1.3,1.9-3.2,2-5.9c0-1.4,0.1-2.3,0.1-2.8c0-0.4,0-1.4-0.1-2.8
				c-0.1-2.6-0.8-4.6-2-5.8c-1.3-1.3-2.9-1.9-5-1.9s-3.8,0.6-5,1.9s-2,3.2-2,5.8c0,0.7,0,1.6,0,2.8s0,2.1,0,2.8
				c0.1,2.6,0.8,4.6,2,5.9c1.3,1.3,2.9,1.9,5,1.9C274,141.6,275.7,141,276.9,139.7L276.9,139.7z M297.8,141.9
				c-1.6-1.2-2.4-3-2.5-5.4c0-0.2,0.1-0.4,0.2-0.6s0.3-0.2,0.5-0.2h0.7c0.2,0,0.4,0.1,0.5,0.2c0.1,0.1,0.2,0.3,0.2,0.5
				c0.1,1.7,0.8,3,2,3.9s2.6,1.3,4.4,1.3c2,0,3.6-0.7,4.7-2c1.1-1.3,1.6-3.1,1.6-5.3v-13.5h-13c-0.2,0-0.4-0.1-0.6-0.2
				c-0.1-0.1-0.2-0.3-0.2-0.6v-0.6c0-0.2,0.1-0.4,0.2-0.6c0.1-0.1,0.3-0.2,0.6-0.2h14.4c0.3,0,0.5,0.1,0.6,0.2s0.2,0.3,0.2,0.6v14.8
				c0,2.8-0.7,5.1-2.2,6.8c-1.5,1.7-3.6,2.6-6.3,2.6C301.3,143.8,299.3,143.1,297.8,141.9L297.8,141.9z M320.6,141.3
				c-1.6-1.6-2.3-4.1-2.3-7.4v-14.3c0-0.2,0.1-0.4,0.2-0.6c0.1-0.2,0.3-0.2,0.6-0.2h0.6c0.3,0,0.5,0.1,0.6,0.2s0.2,0.3,0.2,0.6V134
				c0,2.6,0.6,4.5,1.8,5.8s2.9,1.9,5.1,1.9c2.2,0,3.8-0.6,5-1.9c1.2-1.3,1.8-3.2,1.8-5.8v-14.4c0-0.3,0.1-0.5,0.2-0.6
				c0.1-0.1,0.4-0.2,0.6-0.2h0.6c0.2,0,0.4,0.1,0.6,0.2c0.1,0.2,0.2,0.3,0.2,0.6v14.3c0,3.4-0.8,5.8-2.3,7.4
				c-1.5,1.6-3.8,2.4-6.7,2.4C324.4,143.8,322.2,142.9,320.6,141.3z M342.8,143.2c-0.1-0.1-0.2-0.3-0.2-0.6v-23
				c0-0.2,0.1-0.4,0.2-0.6c0.1-0.2,0.3-0.2,0.6-0.2h8.2c2.5,0,4.5,0.6,5.9,1.8c1.4,1.2,2.1,3,2.1,5.3c0,1.8-0.5,3.3-1.4,4.5
				c-0.9,1.1-2.2,1.9-3.9,2.3l5.7,9.6c0.1,0.1,0.1,0.3,0.1,0.4c0,0.2-0.1,0.4-0.2,0.5c-0.1,0.1-0.3,0.2-0.5,0.2H359
				c-0.4,0-0.6-0.1-0.8-0.2c-0.2-0.1-0.4-0.4-0.5-0.7l-5.6-9.5h-7.2v9.6c0,0.2-0.1,0.4-0.2,0.6c-0.1,0.1-0.4,0.2-0.6,0.2h-0.6
				C343.1,143.4,343,143.3,342.8,143.2L342.8,143.2z M351.4,130.9c2,0,3.6-0.4,4.5-1.3c1-0.8,1.5-2.1,1.5-3.7c0-1.7-0.5-2.9-1.5-3.7
				c-1-0.8-2.5-1.3-4.5-1.3h-6.6v10H351.4z M365.3,143.2c-0.1-0.1-0.2-0.3-0.2-0.6v-23.1c0-0.2,0.1-0.4,0.2-0.6
				c0.1-0.1,0.3-0.2,0.6-0.2h0.7c0.2,0,0.4,0.1,0.6,0.2c0.1,0.1,0.2,0.3,0.2,0.6v23.1c0,0.2-0.1,0.4-0.2,0.6
				c-0.1,0.1-0.3,0.2-0.6,0.2h-0.7C365.6,143.4,365.4,143.3,365.3,143.2z M365.2,116.5c0-0.2,0.1-0.3,0.2-0.5l2.4-2.9
				c0.2-0.3,0.4-0.4,0.6-0.5s0.4-0.1,0.7-0.1h1.6c0.4,0,0.7,0.2,0.7,0.7c0,0.2-0.1,0.3-0.2,0.4l-3.8,3.1c-0.2,0.1-0.4,0.2-0.5,0.3
				c-0.1,0.1-0.3,0.1-0.6,0.1h-0.5C365.4,117,365.2,116.8,365.2,116.5L365.2,116.5z M374.2,143.2c-0.1-0.1-0.2-0.3-0.2-0.6v-23
				c0-0.2,0.1-0.4,0.2-0.6c0.1-0.2,0.3-0.2,0.6-0.2h7.5c2.4,0,4.4,0.4,5.8,1.1c1.4,0.7,2.4,1.8,3,3.2c0.6,1.4,0.9,3.1,1,5.3
				c0,0.7,0,1.6,0,2.8c0,1.2,0,2.1,0,2.8c0,2.3-0.4,4.1-1,5.4s-1.6,2.4-3,3.1c-1.4,0.7-3.3,1-5.7,1h-7.7
				C374.5,143.4,374.3,143.3,374.2,143.2L374.2,143.2z M382.3,141.3c1.9,0,3.4-0.3,4.4-0.8c1.1-0.5,1.9-1.3,2.3-2.4s0.7-2.6,0.8-4.4
				c0-0.7,0-1.6,0-2.6c0-1,0-1.9,0-2.6c0-2.6-0.7-4.5-1.9-5.8c-1.2-1.2-3.1-1.8-5.9-1.8h-5.9v20.4L382.3,141.3L382.3,141.3z
				 M397.9,143.2c-0.1-0.1-0.2-0.3-0.2-0.6v-23.1c0-0.2,0.1-0.4,0.2-0.6c0.1-0.1,0.3-0.2,0.6-0.2h0.7c0.2,0,0.4,0.1,0.6,0.2
				c0.1,0.1,0.2,0.3,0.2,0.6v23.1c0,0.2-0.1,0.4-0.2,0.6c-0.1,0.1-0.3,0.2-0.6,0.2h-0.7C398.2,143.4,398,143.3,397.9,143.2z
				 M407.9,141.2c-1.5-1.7-2.3-4-2.5-6.9c0-0.6,0-1.7,0-3.1c0-1.4,0-2.5,0-3.2c0.1-2.9,0.9-5.2,2.5-6.9s3.8-2.6,6.9-2.6
				c2.1,0,3.8,0.4,5.2,1.1s2.4,1.7,3.1,2.9c0.7,1.2,1,2.3,1.1,3.6v0.1c0,0.2-0.1,0.3-0.2,0.5c-0.1,0.1-0.3,0.2-0.5,0.2h-0.7
				c-0.4,0-0.7-0.3-0.8-0.7c-0.5-2-1.3-3.4-2.4-4.2c-1.2-0.8-2.8-1.2-4.8-1.2c-2.2,0-3.9,0.6-5.1,1.9s-1.9,3.2-2,5.7
				c0,0.6,0,1.6,0,2.9s0,2.3,0,3c0.1,2.6,0.8,4.5,2,5.7c1.2,1.2,2.9,1.9,5.1,1.9c2,0,3.6-0.4,4.8-1.2c1.2-0.8,2-2.2,2.4-4.2
				c0.1-0.5,0.4-0.7,0.8-0.7h0.7c0.2,0,0.4,0.1,0.5,0.2c0.1,0.1,0.2,0.3,0.2,0.5c-0.1,1.2-0.4,2.4-1.1,3.6c-0.7,1.2-1.7,2.1-3.1,2.9
				c-1.4,0.8-3.1,1.1-5.2,1.1C411.7,143.8,409.5,142.9,407.9,141.2z M428.7,134.1c0-0.7,0-1.7,0-2.9s0-2.3,0-2.9
				c0.1-3.2,1-5.6,2.6-7.2s3.9-2.5,6.7-2.5s5,0.8,6.7,2.5c1.6,1.6,2.5,4.1,2.6,7.2c0,1.4,0.1,2.4,0.1,2.9s0,1.6-0.1,2.9
				c-0.2,6.5-3.3,9.7-9.3,9.7S428.9,140.5,428.7,134.1z M443.1,139.7c1.3-1.3,1.9-3.2,2-5.9c0-1.4,0.1-2.3,0.1-2.8
				c0-0.4,0-1.4-0.1-2.8c-0.1-2.6-0.8-4.6-2-5.8c-1.3-1.3-2.9-1.9-5-1.9s-3.8,0.6-5,1.9s-2,3.2-2,5.8c0,0.7,0,1.6,0,2.8s0,2.1,0,2.8
				c0.1,2.6,0.8,4.6,2,5.9c1.3,1.3,2.9,1.9,5,1.9C440.1,141.6,441.8,141,443.1,139.7L443.1,139.7z"/>
		</g>
	</g>
	<g class="st5">
		<path class="st6" d="M724.2,94.8c-19.8,0-36-16.1-36-36c0-19.8,16.1-36,36-36v16c-11,0-20,9-20,20s9,20,20,20c11,0,20-9,20-20h16
			C760.2,78.7,744,94.8,724.2,94.8z M898.2,94.8c-19.8,0-36-16.1-36-36V24.6h16v34.2c0,11,9,20,20,20c11,0,20-9,20-20V24.6h16v34.2
			C934.2,78.7,918.1,94.8,898.2,94.8z"/>
		<path class="st1" d="M768.4,50.7h-16c0-5.9-2.6-11.4-7-15.2c-3.6-3.1-8.2-4.8-12.9-4.8v-16c8.5,0,16.8,3,23.3,8.6
			C763.7,30.1,768.4,40.1,768.4,50.7z"/>
		<path class="st6" d="M679.2,40.6v-16h-67.6V93h16V74.8h42.7v-16h-42.7V40.6H679.2z M1018.9,24.6L991.1,55l-27.8-30.4h-15.5V93h16
			V48.8l23.8,26h7l23.8-26V93h16V24.6H1018.9z M851.4,93l-18.1-20.1c9-3.8,15.4-12.8,15.4-23.2c0-13.8-11.3-25.1-25.1-25.1H781V93
			h16V74.8h16.5L829.9,93H851.4z M797.1,40.6h26.5c5,0,9.1,4.1,9.1,9.1s-4.1,9.1-9.1,9.1h-26.5C797.1,58.8,797.1,40.6,797.1,40.6z"
			/>
	</g>
</g>
<g id="Monocromático" class="st3">
	<path class="st7" d="M-47.4-57.3h566.9v273H-47.4V-57.3z M539.5-57.3h566.9v224.1H539.5V-57.3z"/>
	<g class="st5">
		<path class="st6" d="M137.3,94.8c-19.8,0-36-16.1-36-36c0-19.8,16.1-36,36-36v16c-11,0-20,9-20,20s9,20,20,20s20-9,20-20h16
			C173.3,78.7,157.1,94.8,137.3,94.8z M311.3,94.8c-19.8,0-36-16.1-36-36V24.6h16v34.2c0,11,9,20,20,20s20-9,20-20V24.6h16v34.2
			C347.3,78.7,331.1,94.8,311.3,94.8z M181.4,50.7h-16c0-5.9-2.6-11.4-7-15.2c-3.6-3.1-8.2-4.8-12.9-4.8v-16c8.5,0,16.8,3,23.3,8.6
			C176.8,30.1,181.4,40.1,181.4,50.7z M92.2,40.6v-16H24.6V93h16V74.8h42.7v-16H40.6V40.6H92.2z M432,24.6L404.2,55l-27.8-30.4
			h-15.5V93h16V48.8l23.8,26h7l23.8-26V93h16V24.6H432z M264.5,93l-18.1-20.2c9-3.8,15.4-12.8,15.4-23.2c0-13.8-11.3-25.1-25.1-25.1
			h-42.5V93h16V74.8h16.5L243,93H264.5z M210.1,40.6h26.5c5,0,9.1,4.1,9.1,9.1s-4.1,9.1-9.1,9.1h-26.5
			C210.1,58.8,210.1,40.6,210.1,40.6z"/>
		<g>
			<path class="st6" d="M27.1,141.2c-1.5-1.7-2.3-4-2.5-6.9c0-0.6,0-1.7,0-3.1c0-1.4,0-2.5,0-3.2c0.1-2.9,0.9-5.2,2.5-6.9
				c1.5-1.7,3.8-2.6,6.9-2.6c2.1,0,3.8,0.4,5.2,1.1s2.4,1.7,3.1,2.9c0.7,1.2,1,2.3,1.1,3.6v0.1c0,0.2-0.1,0.3-0.2,0.5
				s-0.3,0.2-0.5,0.2h-0.7c-0.4,0-0.7-0.3-0.8-0.7c-0.5-2-1.3-3.4-2.4-4.2c-1.2-0.8-2.8-1.2-4.8-1.2c-2.2,0-3.9,0.6-5.1,1.9
				c-1.2,1.2-1.9,3.2-2,5.7c0,0.6,0,1.6,0,2.9s0,2.3,0,3c0.1,2.6,0.8,4.5,2,5.7c1.2,1.2,2.9,1.9,5.1,1.9c2,0,3.6-0.4,4.8-1.2
				c1.2-0.8,2-2.2,2.4-4.2c0.1-0.5,0.3-0.7,0.8-0.7h0.7c0.2,0,0.4,0.1,0.5,0.2c0.2,0.1,0.2,0.3,0.2,0.5c-0.1,1.2-0.4,2.4-1.1,3.6
				s-1.7,2.1-3.1,2.9c-1.4,0.8-3.1,1.1-5.2,1.1C30.9,143.8,28.6,142.9,27.1,141.2z M47.9,134.1c0-0.7,0-1.7,0-2.9s0-2.3,0-2.9
				c0.1-3.2,1-5.6,2.6-7.2s3.9-2.5,6.7-2.5s5,0.8,6.7,2.5c1.6,1.6,2.5,4.1,2.6,7.2c0.1,1.4,0.1,2.4,0.1,2.9s0,1.6-0.1,2.9
				c-0.2,6.5-3.3,9.7-9.3,9.7S48,140.5,47.9,134.1z M62.2,139.7c1.3-1.3,1.9-3.2,2-5.9c0.1-1.4,0.1-2.3,0.1-2.8c0-0.4,0-1.4-0.1-2.8
				c-0.1-2.6-0.8-4.6-2-5.8c-1.3-1.3-2.9-1.9-5-1.9s-3.8,0.6-5,1.9s-2,3.2-2,5.8c0,0.7,0,1.6,0,2.8s0,2.1,0,2.8
				c0.1,2.6,0.8,4.6,2,5.9c1.3,1.3,2.9,1.9,5,1.9C59.3,141.6,61,141,62.2,139.7z M72.3,143.2c-0.1-0.1-0.2-0.3-0.2-0.6v-23
				c0-0.2,0.1-0.4,0.2-0.6s0.3-0.2,0.6-0.2h0.7c0.3,0,0.6,0.1,0.7,0.4l13,19.8v-19.4c0-0.2,0.1-0.4,0.2-0.6s0.3-0.2,0.6-0.2h0.6
				c0.3,0,0.5,0.1,0.6,0.2s0.2,0.3,0.2,0.6v23c0,0.2-0.1,0.4-0.2,0.6c-0.1,0.1-0.3,0.2-0.6,0.2h-0.8c-0.3,0-0.6-0.1-0.7-0.4
				l-12.9-19.8v19.4c0,0.2-0.1,0.4-0.2,0.6s-0.3,0.2-0.6,0.2h-0.6C72.6,143.4,72.4,143.3,72.3,143.2z M96,143.2
				c-0.1-0.1-0.2-0.3-0.2-0.6v-23c0-0.2,0.1-0.4,0.2-0.6s0.3-0.2,0.6-0.2h0.6c0.3,0,0.5,0.1,0.6,0.2s0.2,0.3,0.2,0.6v10.3h13.6
				v-10.3c0-0.2,0.1-0.4,0.2-0.6s0.3-0.2,0.6-0.2h0.6c0.3,0,0.5,0.1,0.6,0.2s0.2,0.3,0.2,0.6v23c0,0.2-0.1,0.4-0.2,0.6
				s-0.3,0.2-0.6,0.2h-0.6c-0.2,0-0.4-0.1-0.6-0.2s-0.2-0.3-0.2-0.6V132H98v10.6c0,0.2-0.1,0.4-0.2,0.6s-0.3,0.2-0.6,0.2h-0.6
				C96.4,143.4,96.2,143.3,96,143.2z M120.4,143.2c-0.1-0.1-0.2-0.3-0.2-0.6v-23c0-0.2,0.1-0.4,0.2-0.6s0.3-0.2,0.6-0.2h13.7
				c0.3,0,0.5,0.1,0.6,0.2s0.2,0.3,0.2,0.6v0.5c0,0.2-0.1,0.4-0.2,0.6s-0.4,0.2-0.6,0.2h-12.3v9h11.5c0.3,0,0.5,0.1,0.6,0.2
				s0.2,0.3,0.2,0.6v0.5c0,0.2-0.1,0.4-0.2,0.6s-0.4,0.2-0.6,0.2h-11.5v9.3h12.5c0.3,0,0.5,0.1,0.6,0.2s0.2,0.3,0.2,0.6v0.5
				c0,0.2-0.1,0.4-0.2,0.6s-0.4,0.2-0.6,0.2h-14C120.7,143.4,120.5,143.3,120.4,143.2L120.4,143.2z M142.3,141.2
				c-1.5-1.7-2.3-4-2.5-6.9c0-0.6,0-1.7,0-3.1c0-1.4,0-2.5,0-3.2c0.1-2.9,0.9-5.2,2.5-6.9s3.8-2.6,6.9-2.6c2.1,0,3.8,0.4,5.2,1.1
				c1.4,0.8,2.4,1.7,3.1,2.9c0.7,1.2,1,2.3,1.1,3.6v0.1c0,0.2-0.1,0.3-0.2,0.5s-0.3,0.2-0.5,0.2h-0.7c-0.4,0-0.7-0.3-0.8-0.7
				c-0.4-2-1.3-3.4-2.4-4.2c-1.2-0.8-2.8-1.2-4.8-1.2c-2.2,0-3.9,0.6-5.1,1.9s-1.9,3.2-2,5.7c0,0.6,0,1.6,0,2.9s0,2.3,0,3
				c0.1,2.6,0.8,4.5,2,5.7c1.2,1.2,2.9,1.9,5.1,1.9c2,0,3.6-0.4,4.8-1.2c1.2-0.8,2-2.2,2.4-4.2c0.1-0.5,0.4-0.7,0.8-0.7h0.7
				c0.2,0,0.4,0.1,0.5,0.2c0.1,0.1,0.2,0.3,0.2,0.5c-0.1,1.2-0.4,2.4-1.1,3.6s-1.7,2.1-3.1,2.9c-1.4,0.8-3.1,1.1-5.2,1.1
				C146.1,143.8,143.8,142.9,142.3,141.2L142.3,141.2z M163.8,143.2c-0.1-0.1-0.2-0.3-0.2-0.6v-23.1c0-0.2,0.1-0.4,0.2-0.6
				s0.3-0.2,0.6-0.2h0.7c0.2,0,0.4,0.1,0.6,0.2s0.2,0.3,0.2,0.6v23.1c0,0.2-0.1,0.4-0.2,0.6s-0.3,0.2-0.6,0.2h-0.7
				C164.1,143.4,163.9,143.3,163.8,143.2z M172.4,143.2c-0.1-0.1-0.2-0.3-0.2-0.6v-23c0-0.3,0.1-0.5,0.2-0.6s0.4-0.2,0.6-0.2h0.9
				c0.4,0,0.6,0.2,0.7,0.5l8,15.5l8-15.5c0.2-0.3,0.4-0.5,0.7-0.5h0.8c0.3,0,0.5,0.1,0.6,0.2s0.2,0.3,0.2,0.6v23
				c0,0.2-0.1,0.4-0.2,0.6s-0.4,0.2-0.6,0.2h-0.6c-0.2,0-0.4-0.1-0.6-0.2s-0.2-0.3-0.2-0.6v-19.1l-6.7,13.2
				c-0.2,0.5-0.6,0.7-1.1,0.7h-0.8c-0.5,0-0.9-0.2-1.1-0.7l-6.7-13.2v19.1c0,0.2-0.1,0.4-0.2,0.6s-0.3,0.2-0.6,0.2H173
				C172.7,143.4,172.5,143.3,172.4,143.2L172.4,143.2z M199.5,143.2c-0.1-0.1-0.2-0.3-0.2-0.6v-23c0-0.2,0.1-0.4,0.2-0.6
				s0.3-0.2,0.6-0.2h13.7c0.3,0,0.5,0.1,0.6,0.2s0.2,0.3,0.2,0.6v0.5c0,0.2-0.1,0.4-0.2,0.6s-0.4,0.2-0.6,0.2h-12.3v9H213
				c0.3,0,0.5,0.1,0.6,0.2s0.2,0.3,0.2,0.6v0.5c0,0.2-0.1,0.4-0.2,0.6s-0.4,0.2-0.6,0.2h-11.5v9.3h12.6c0.3,0,0.5,0.1,0.6,0.2
				s0.2,0.3,0.2,0.6v0.5c0,0.2-0.1,0.4-0.2,0.6s-0.4,0.2-0.6,0.2h-14C199.8,143.4,199.7,143.3,199.5,143.2L199.5,143.2z
				 M220.2,143.2c-0.1-0.1-0.2-0.3-0.2-0.6v-23c0-0.2,0.1-0.4,0.2-0.6s0.3-0.2,0.6-0.2h0.7c0.3,0,0.6,0.1,0.7,0.4l13,19.8v-19.4
				c0-0.2,0.1-0.4,0.2-0.6s0.3-0.2,0.6-0.2h0.6c0.3,0,0.5,0.1,0.6,0.2s0.2,0.3,0.2,0.6v23c0,0.2-0.1,0.4-0.2,0.6
				c-0.1,0.1-0.3,0.2-0.6,0.2h-0.8c-0.3,0-0.6-0.1-0.7-0.4l-12.9-19.8v19.4c0,0.2-0.1,0.4-0.2,0.6s-0.4,0.2-0.6,0.2h-0.6
				C220.5,143.4,220.3,143.3,220.2,143.2L220.2,143.2z M249.9,143.2c-0.1-0.1-0.2-0.3-0.2-0.6v-21.7h-7c-0.2,0-0.4-0.1-0.6-0.2
				s-0.2-0.3-0.2-0.6v-0.5c0-0.2,0.1-0.4,0.2-0.6s0.3-0.2,0.6-0.2h16.1c0.3,0,0.5,0.1,0.6,0.2s0.2,0.3,0.2,0.6v0.5
				c0,0.2-0.1,0.4-0.2,0.6c-0.1,0.1-0.4,0.2-0.6,0.2h-6.9v21.7c0,0.2-0.1,0.4-0.2,0.6s-0.4,0.2-0.6,0.2h-0.6
				C250.3,143.4,250.1,143.3,249.9,143.2L249.9,143.2z M262.6,134.1c0-0.7,0-1.7,0-2.9s0-2.3,0-2.9c0.1-3.2,1-5.6,2.6-7.2
				s3.9-2.5,6.7-2.5s5,0.8,6.7,2.5c1.6,1.6,2.5,4.1,2.6,7.2c0,1.4,0.1,2.4,0.1,2.9s0,1.6-0.1,2.9c-0.2,6.5-3.3,9.7-9.3,9.7
				S262.8,140.5,262.6,134.1z M276.9,139.7c1.3-1.3,1.9-3.2,2-5.9c0-1.4,0.1-2.3,0.1-2.8c0-0.4,0-1.4-0.1-2.8
				c-0.1-2.6-0.8-4.6-2-5.8c-1.3-1.3-2.9-1.9-5-1.9s-3.8,0.6-5,1.9s-2,3.2-2,5.8c0,0.7,0,1.6,0,2.8s0,2.1,0,2.8
				c0.1,2.6,0.8,4.6,2,5.9c1.3,1.3,2.9,1.9,5,1.9C274,141.6,275.7,141,276.9,139.7L276.9,139.7z M297.8,141.9
				c-1.6-1.2-2.4-3-2.5-5.4c0-0.2,0.1-0.4,0.2-0.6s0.3-0.2,0.5-0.2h0.7c0.2,0,0.4,0.1,0.5,0.2c0.1,0.1,0.2,0.3,0.2,0.5
				c0.1,1.7,0.8,3,2,3.9s2.6,1.3,4.4,1.3c2,0,3.6-0.7,4.7-2c1.1-1.3,1.6-3.1,1.6-5.3v-13.5h-13c-0.2,0-0.4-0.1-0.6-0.2
				c-0.1-0.1-0.2-0.3-0.2-0.6v-0.6c0-0.2,0.1-0.4,0.2-0.6c0.1-0.1,0.3-0.2,0.6-0.2h14.4c0.3,0,0.5,0.1,0.6,0.2s0.2,0.3,0.2,0.6v14.8
				c0,2.8-0.7,5.1-2.2,6.8c-1.5,1.7-3.6,2.6-6.3,2.6C301.3,143.8,299.3,143.1,297.8,141.9L297.8,141.9z M320.6,141.3
				c-1.6-1.6-2.3-4.1-2.3-7.4v-14.3c0-0.2,0.1-0.4,0.2-0.6c0.1-0.2,0.3-0.2,0.6-0.2h0.6c0.3,0,0.5,0.1,0.6,0.2s0.2,0.3,0.2,0.6V134
				c0,2.6,0.6,4.5,1.8,5.8s2.9,1.9,5.1,1.9c2.2,0,3.8-0.6,5-1.9c1.2-1.3,1.8-3.2,1.8-5.8v-14.4c0-0.3,0.1-0.5,0.2-0.6
				c0.1-0.1,0.4-0.2,0.6-0.2h0.6c0.2,0,0.4,0.1,0.6,0.2c0.1,0.2,0.2,0.3,0.2,0.6v14.3c0,3.4-0.8,5.8-2.3,7.4
				c-1.5,1.6-3.8,2.4-6.7,2.4C324.4,143.8,322.2,142.9,320.6,141.3z M342.8,143.2c-0.1-0.1-0.2-0.3-0.2-0.6v-23
				c0-0.2,0.1-0.4,0.2-0.6c0.1-0.2,0.3-0.2,0.6-0.2h8.2c2.5,0,4.5,0.6,5.9,1.8c1.4,1.2,2.1,3,2.1,5.3c0,1.8-0.5,3.3-1.4,4.5
				c-0.9,1.1-2.2,1.9-3.9,2.3l5.7,9.6c0.1,0.1,0.1,0.3,0.1,0.4c0,0.2-0.1,0.4-0.2,0.5c-0.1,0.1-0.3,0.2-0.5,0.2H359
				c-0.4,0-0.6-0.1-0.8-0.2c-0.2-0.1-0.4-0.4-0.5-0.7l-5.6-9.5h-7.2v9.6c0,0.2-0.1,0.4-0.2,0.6c-0.1,0.1-0.4,0.2-0.6,0.2h-0.6
				C343.1,143.4,343,143.3,342.8,143.2L342.8,143.2z M351.4,130.9c2,0,3.6-0.4,4.5-1.3c1-0.8,1.5-2.1,1.5-3.7c0-1.7-0.5-2.9-1.5-3.7
				c-1-0.8-2.5-1.3-4.5-1.3h-6.6v10H351.4z M365.3,143.2c-0.1-0.1-0.2-0.3-0.2-0.6v-23.1c0-0.2,0.1-0.4,0.2-0.6
				c0.1-0.1,0.3-0.2,0.6-0.2h0.7c0.2,0,0.4,0.1,0.6,0.2c0.1,0.1,0.2,0.3,0.2,0.6v23.1c0,0.2-0.1,0.4-0.2,0.6
				c-0.1,0.1-0.3,0.2-0.6,0.2h-0.7C365.6,143.4,365.4,143.3,365.3,143.2z M365.2,116.5c0-0.2,0.1-0.3,0.2-0.5l2.4-2.9
				c0.2-0.3,0.4-0.4,0.6-0.5s0.4-0.1,0.7-0.1h1.6c0.4,0,0.7,0.2,0.7,0.7c0,0.2-0.1,0.3-0.2,0.4l-3.8,3.1c-0.2,0.1-0.4,0.2-0.5,0.3
				c-0.1,0.1-0.3,0.1-0.6,0.1h-0.5C365.4,117,365.2,116.8,365.2,116.5L365.2,116.5z M374.2,143.2c-0.1-0.1-0.2-0.3-0.2-0.6v-23
				c0-0.2,0.1-0.4,0.2-0.6c0.1-0.2,0.3-0.2,0.6-0.2h7.5c2.4,0,4.4,0.4,5.8,1.1c1.4,0.7,2.4,1.8,3,3.2c0.6,1.4,0.9,3.1,1,5.3
				c0,0.7,0,1.6,0,2.8c0,1.2,0,2.1,0,2.8c0,2.3-0.4,4.1-1,5.4s-1.6,2.4-3,3.1c-1.4,0.7-3.3,1-5.7,1h-7.7
				C374.5,143.4,374.3,143.3,374.2,143.2L374.2,143.2z M382.3,141.3c1.9,0,3.4-0.3,4.4-0.8c1.1-0.5,1.9-1.3,2.3-2.4s0.7-2.6,0.8-4.4
				c0-0.7,0-1.6,0-2.6c0-1,0-1.9,0-2.6c0-2.6-0.7-4.5-1.9-5.8c-1.2-1.2-3.1-1.8-5.9-1.8h-5.9v20.4L382.3,141.3L382.3,141.3z
				 M397.9,143.2c-0.1-0.1-0.2-0.3-0.2-0.6v-23.1c0-0.2,0.1-0.4,0.2-0.6c0.1-0.1,0.3-0.2,0.6-0.2h0.7c0.2,0,0.4,0.1,0.6,0.2
				c0.1,0.1,0.2,0.3,0.2,0.6v23.1c0,0.2-0.1,0.4-0.2,0.6c-0.1,0.1-0.3,0.2-0.6,0.2h-0.7C398.2,143.4,398,143.3,397.9,143.2z
				 M407.9,141.2c-1.5-1.7-2.3-4-2.5-6.9c0-0.6,0-1.7,0-3.1c0-1.4,0-2.5,0-3.2c0.1-2.9,0.9-5.2,2.5-6.9s3.8-2.6,6.9-2.6
				c2.1,0,3.8,0.4,5.2,1.1s2.4,1.7,3.1,2.9c0.7,1.2,1,2.3,1.1,3.6v0.1c0,0.2-0.1,0.3-0.2,0.5c-0.1,0.1-0.3,0.2-0.5,0.2h-0.7
				c-0.4,0-0.7-0.3-0.8-0.7c-0.5-2-1.3-3.4-2.4-4.2c-1.2-0.8-2.8-1.2-4.8-1.2c-2.2,0-3.9,0.6-5.1,1.9s-1.9,3.2-2,5.7
				c0,0.6,0,1.6,0,2.9s0,2.3,0,3c0.1,2.6,0.8,4.5,2,5.7c1.2,1.2,2.9,1.9,5.1,1.9c2,0,3.6-0.4,4.8-1.2c1.2-0.8,2-2.2,2.4-4.2
				c0.1-0.5,0.4-0.7,0.8-0.7h0.7c0.2,0,0.4,0.1,0.5,0.2c0.1,0.1,0.2,0.3,0.2,0.5c-0.1,1.2-0.4,2.4-1.1,3.6c-0.7,1.2-1.7,2.1-3.1,2.9
				c-1.4,0.8-3.1,1.1-5.2,1.1C411.7,143.8,409.5,142.9,407.9,141.2z M428.7,134.1c0-0.7,0-1.7,0-2.9s0-2.3,0-2.9
				c0.1-3.2,1-5.6,2.6-7.2s3.9-2.5,6.7-2.5s5,0.8,6.7,2.5c1.6,1.6,2.5,4.1,2.6,7.2c0,1.4,0.1,2.4,0.1,2.9s0,1.6-0.1,2.9
				c-0.2,6.5-3.3,9.7-9.3,9.7S428.9,140.5,428.7,134.1z M443.1,139.7c1.3-1.3,1.9-3.2,2-5.9c0-1.4,0.1-2.3,0.1-2.8
				c0-0.4,0-1.4-0.1-2.8c-0.1-2.6-0.8-4.6-2-5.8c-1.3-1.3-2.9-1.9-5-1.9s-3.8,0.6-5,1.9s-2,3.2-2,5.8c0,0.7,0,1.6,0,2.8s0,2.1,0,2.8
				c0.1,2.6,0.8,4.6,2,5.9c1.3,1.3,2.9,1.9,5,1.9C440.1,141.6,441.8,141,443.1,139.7L443.1,139.7z"/>
		</g>
	</g>
	<g class="st5">
		<path class="st6" d="M724.2,94.8c-19.8,0-36-16.1-36-36c0-19.8,16.1-36,36-36v16c-11,0-20,9-20,20s9,20,20,20c11,0,20-9,20-20h16
			C760.2,78.7,744,94.8,724.2,94.8z M898.2,94.8c-19.8,0-36-16.1-36-36V24.6h16v34.2c0,11,9,20,20,20c11,0,20-9,20-20V24.6h16v34.2
			C934.2,78.7,918.1,94.8,898.2,94.8z M768.4,50.7h-16c0-5.9-2.6-11.4-7-15.2c-3.6-3.1-8.2-4.8-12.9-4.8v-16c8.5,0,16.8,3,23.3,8.6
			C763.7,30.1,768.4,40.1,768.4,50.7z M679.2,40.6v-16h-67.6V93h16V74.8h42.7v-16h-42.7V40.6H679.2z M1018.9,24.6L991.1,55
			l-27.8-30.4h-15.5V93h16V48.8l23.8,26h7l23.8-26V93h16V24.6H1018.9z M851.4,93l-18.1-20.1c9-3.8,15.4-12.8,15.4-23.2
			c0-13.8-11.3-25.1-25.1-25.1H781V93h16V74.8h16.5L829.9,93H851.4z M797.1,40.6h26.5c5,0,9.1,4.1,9.1,9.1s-4.1,9.1-9.1,9.1h-26.5
			C797.1,58.8,797.1,40.6,797.1,40.6z"/>
	</g>
</g>
<g id="Negativo" class="st3">
	<g class="st5">
		<path class="st8" d="M137.3,94.8c-19.8,0-36-16.1-36-36c0-19.8,16.1-36,36-36v16c-11,0-20,9-20,20s9,20,20,20s20-9,20-20h16
			C173.3,78.7,157.1,94.8,137.3,94.8z M311.3,94.8c-19.8,0-36-16.1-36-36V24.6h16v34.2c0,11,9,20,20,20s20-9,20-20V24.6h16v34.2
			C347.3,78.7,331.1,94.8,311.3,94.8z M181.4,50.7h-16c0-5.9-2.6-11.4-7-15.2c-3.6-3.1-8.2-4.8-12.9-4.8v-16c8.5,0,16.8,3,23.3,8.6
			C176.8,30.1,181.4,40.1,181.4,50.7z M92.2,40.6v-16H24.6V93h16V74.8h42.7v-16H40.6V40.6H92.2z M432,24.6L404.2,55l-27.8-30.4
			h-15.5V93h16V48.8l23.8,26h7l23.8-26V93h16V24.6H432z M264.5,93l-18.1-20.2c9-3.8,15.4-12.8,15.4-23.2c0-13.8-11.3-25.1-25.1-25.1
			h-42.5V93h16V74.8h16.5L243,93H264.5z M210.1,40.6h26.5c5,0,9.1,4.1,9.1,9.1s-4.1,9.1-9.1,9.1h-26.5
			C210.1,58.8,210.1,40.6,210.1,40.6z"/>
		<g>
			<path class="st8" d="M27.1,141.2c-1.5-1.7-2.3-4-2.5-6.9c0-0.6,0-1.7,0-3.1c0-1.4,0-2.5,0-3.2c0.1-2.9,0.9-5.2,2.5-6.9
				c1.5-1.7,3.8-2.6,6.9-2.6c2.1,0,3.8,0.4,5.2,1.1s2.4,1.7,3.1,2.9c0.7,1.2,1,2.3,1.1,3.6v0.1c0,0.2-0.1,0.3-0.2,0.5
				s-0.3,0.2-0.5,0.2h-0.7c-0.4,0-0.7-0.3-0.8-0.7c-0.5-2-1.3-3.4-2.4-4.2c-1.2-0.8-2.8-1.2-4.8-1.2c-2.2,0-3.9,0.6-5.1,1.9
				c-1.2,1.2-1.9,3.2-2,5.7c0,0.6,0,1.6,0,2.9s0,2.3,0,3c0.1,2.6,0.8,4.5,2,5.7c1.2,1.2,2.9,1.9,5.1,1.9c2,0,3.6-0.4,4.8-1.2
				c1.2-0.8,2-2.2,2.4-4.2c0.1-0.5,0.3-0.7,0.8-0.7h0.7c0.2,0,0.4,0.1,0.5,0.2c0.2,0.1,0.2,0.3,0.2,0.5c-0.1,1.2-0.4,2.4-1.1,3.6
				s-1.7,2.1-3.1,2.9c-1.4,0.8-3.1,1.1-5.2,1.1C30.9,143.8,28.6,142.9,27.1,141.2z M47.9,134.1c0-0.7,0-1.7,0-2.9s0-2.3,0-2.9
				c0.1-3.2,1-5.6,2.6-7.2s3.9-2.5,6.7-2.5s5,0.8,6.7,2.5c1.6,1.6,2.5,4.1,2.6,7.2c0.1,1.4,0.1,2.4,0.1,2.9s0,1.6-0.1,2.9
				c-0.2,6.5-3.3,9.7-9.3,9.7S48,140.5,47.9,134.1z M62.2,139.7c1.3-1.3,1.9-3.2,2-5.9c0.1-1.4,0.1-2.3,0.1-2.8c0-0.4,0-1.4-0.1-2.8
				c-0.1-2.6-0.8-4.6-2-5.8c-1.3-1.3-2.9-1.9-5-1.9s-3.8,0.6-5,1.9s-2,3.2-2,5.8c0,0.7,0,1.6,0,2.8s0,2.1,0,2.8
				c0.1,2.6,0.8,4.6,2,5.9c1.3,1.3,2.9,1.9,5,1.9C59.3,141.6,61,141,62.2,139.7z M72.3,143.2c-0.1-0.1-0.2-0.3-0.2-0.6v-23
				c0-0.2,0.1-0.4,0.2-0.6s0.3-0.2,0.6-0.2h0.7c0.3,0,0.6,0.1,0.7,0.4l13,19.8v-19.4c0-0.2,0.1-0.4,0.2-0.6s0.3-0.2,0.6-0.2h0.6
				c0.3,0,0.5,0.1,0.6,0.2s0.2,0.3,0.2,0.6v23c0,0.2-0.1,0.4-0.2,0.6c-0.1,0.1-0.3,0.2-0.6,0.2h-0.8c-0.3,0-0.6-0.1-0.7-0.4
				l-12.9-19.8v19.4c0,0.2-0.1,0.4-0.2,0.6s-0.3,0.2-0.6,0.2h-0.6C72.6,143.4,72.4,143.3,72.3,143.2z M96,143.2
				c-0.1-0.1-0.2-0.3-0.2-0.6v-23c0-0.2,0.1-0.4,0.2-0.6s0.3-0.2,0.6-0.2h0.6c0.3,0,0.5,0.1,0.6,0.2s0.2,0.3,0.2,0.6v10.3h13.6
				v-10.3c0-0.2,0.1-0.4,0.2-0.6s0.3-0.2,0.6-0.2h0.6c0.3,0,0.5,0.1,0.6,0.2s0.2,0.3,0.2,0.6v23c0,0.2-0.1,0.4-0.2,0.6
				s-0.3,0.2-0.6,0.2h-0.6c-0.2,0-0.4-0.1-0.6-0.2s-0.2-0.3-0.2-0.6V132H98v10.6c0,0.2-0.1,0.4-0.2,0.6s-0.3,0.2-0.6,0.2h-0.6
				C96.4,143.4,96.2,143.3,96,143.2z M120.4,143.2c-0.1-0.1-0.2-0.3-0.2-0.6v-23c0-0.2,0.1-0.4,0.2-0.6s0.3-0.2,0.6-0.2h13.7
				c0.3,0,0.5,0.1,0.6,0.2s0.2,0.3,0.2,0.6v0.5c0,0.2-0.1,0.4-0.2,0.6s-0.4,0.2-0.6,0.2h-12.3v9h11.5c0.3,0,0.5,0.1,0.6,0.2
				s0.2,0.3,0.2,0.6v0.5c0,0.2-0.1,0.4-0.2,0.6s-0.4,0.2-0.6,0.2h-11.5v9.3h12.5c0.3,0,0.5,0.1,0.6,0.2s0.2,0.3,0.2,0.6v0.5
				c0,0.2-0.1,0.4-0.2,0.6s-0.4,0.2-0.6,0.2h-14C120.7,143.4,120.5,143.3,120.4,143.2L120.4,143.2z M142.3,141.2
				c-1.5-1.7-2.3-4-2.5-6.9c0-0.6,0-1.7,0-3.1c0-1.4,0-2.5,0-3.2c0.1-2.9,0.9-5.2,2.5-6.9s3.8-2.6,6.9-2.6c2.1,0,3.8,0.4,5.2,1.1
				c1.4,0.8,2.4,1.7,3.1,2.9c0.7,1.2,1,2.3,1.1,3.6v0.1c0,0.2-0.1,0.3-0.2,0.5s-0.3,0.2-0.5,0.2h-0.7c-0.4,0-0.7-0.3-0.8-0.7
				c-0.4-2-1.3-3.4-2.4-4.2c-1.2-0.8-2.8-1.2-4.8-1.2c-2.2,0-3.9,0.6-5.1,1.9s-1.9,3.2-2,5.7c0,0.6,0,1.6,0,2.9s0,2.3,0,3
				c0.1,2.6,0.8,4.5,2,5.7c1.2,1.2,2.9,1.9,5.1,1.9c2,0,3.6-0.4,4.8-1.2c1.2-0.8,2-2.2,2.4-4.2c0.1-0.5,0.4-0.7,0.8-0.7h0.7
				c0.2,0,0.4,0.1,0.5,0.2c0.1,0.1,0.2,0.3,0.2,0.5c-0.1,1.2-0.4,2.4-1.1,3.6s-1.7,2.1-3.1,2.9c-1.4,0.8-3.1,1.1-5.2,1.1
				C146.1,143.8,143.8,142.9,142.3,141.2L142.3,141.2z M163.8,143.2c-0.1-0.1-0.2-0.3-0.2-0.6v-23.1c0-0.2,0.1-0.4,0.2-0.6
				s0.3-0.2,0.6-0.2h0.7c0.2,0,0.4,0.1,0.6,0.2s0.2,0.3,0.2,0.6v23.1c0,0.2-0.1,0.4-0.2,0.6s-0.3,0.2-0.6,0.2h-0.7
				C164.1,143.4,163.9,143.3,163.8,143.2z M172.4,143.2c-0.1-0.1-0.2-0.3-0.2-0.6v-23c0-0.3,0.1-0.5,0.2-0.6s0.4-0.2,0.6-0.2h0.9
				c0.4,0,0.6,0.2,0.7,0.5l8,15.5l8-15.5c0.2-0.3,0.4-0.5,0.7-0.5h0.8c0.3,0,0.5,0.1,0.6,0.2s0.2,0.3,0.2,0.6v23
				c0,0.2-0.1,0.4-0.2,0.6s-0.4,0.2-0.6,0.2h-0.6c-0.2,0-0.4-0.1-0.6-0.2s-0.2-0.3-0.2-0.6v-19.1l-6.7,13.2
				c-0.2,0.5-0.6,0.7-1.1,0.7h-0.8c-0.5,0-0.9-0.2-1.1-0.7l-6.7-13.2v19.1c0,0.2-0.1,0.4-0.2,0.6s-0.3,0.2-0.6,0.2H173
				C172.7,143.4,172.5,143.3,172.4,143.2L172.4,143.2z M199.5,143.2c-0.1-0.1-0.2-0.3-0.2-0.6v-23c0-0.2,0.1-0.4,0.2-0.6
				s0.3-0.2,0.6-0.2h13.7c0.3,0,0.5,0.1,0.6,0.2s0.2,0.3,0.2,0.6v0.5c0,0.2-0.1,0.4-0.2,0.6s-0.4,0.2-0.6,0.2h-12.3v9H213
				c0.3,0,0.5,0.1,0.6,0.2s0.2,0.3,0.2,0.6v0.5c0,0.2-0.1,0.4-0.2,0.6s-0.4,0.2-0.6,0.2h-11.5v9.3h12.6c0.3,0,0.5,0.1,0.6,0.2
				s0.2,0.3,0.2,0.6v0.5c0,0.2-0.1,0.4-0.2,0.6s-0.4,0.2-0.6,0.2h-14C199.8,143.4,199.7,143.3,199.5,143.2L199.5,143.2z
				 M220.2,143.2c-0.1-0.1-0.2-0.3-0.2-0.6v-23c0-0.2,0.1-0.4,0.2-0.6s0.3-0.2,0.6-0.2h0.7c0.3,0,0.6,0.1,0.7,0.4l13,19.8v-19.4
				c0-0.2,0.1-0.4,0.2-0.6s0.3-0.2,0.6-0.2h0.6c0.3,0,0.5,0.1,0.6,0.2s0.2,0.3,0.2,0.6v23c0,0.2-0.1,0.4-0.2,0.6
				c-0.1,0.1-0.3,0.2-0.6,0.2h-0.8c-0.3,0-0.6-0.1-0.7-0.4l-12.9-19.8v19.4c0,0.2-0.1,0.4-0.2,0.6s-0.4,0.2-0.6,0.2h-0.6
				C220.5,143.4,220.3,143.3,220.2,143.2L220.2,143.2z M249.9,143.2c-0.1-0.1-0.2-0.3-0.2-0.6v-21.7h-7c-0.2,0-0.4-0.1-0.6-0.2
				s-0.2-0.3-0.2-0.6v-0.5c0-0.2,0.1-0.4,0.2-0.6s0.3-0.2,0.6-0.2h16.1c0.3,0,0.5,0.1,0.6,0.2s0.2,0.3,0.2,0.6v0.5
				c0,0.2-0.1,0.4-0.2,0.6c-0.1,0.1-0.4,0.2-0.6,0.2h-6.9v21.7c0,0.2-0.1,0.4-0.2,0.6s-0.4,0.2-0.6,0.2h-0.6
				C250.3,143.4,250.1,143.3,249.9,143.2L249.9,143.2z M262.6,134.1c0-0.7,0-1.7,0-2.9s0-2.3,0-2.9c0.1-3.2,1-5.6,2.6-7.2
				s3.9-2.5,6.7-2.5s5,0.8,6.7,2.5c1.6,1.6,2.5,4.1,2.6,7.2c0,1.4,0.1,2.4,0.1,2.9s0,1.6-0.1,2.9c-0.2,6.5-3.3,9.7-9.3,9.7
				S262.8,140.5,262.6,134.1z M276.9,139.7c1.3-1.3,1.9-3.2,2-5.9c0-1.4,0.1-2.3,0.1-2.8c0-0.4,0-1.4-0.1-2.8
				c-0.1-2.6-0.8-4.6-2-5.8c-1.3-1.3-2.9-1.9-5-1.9s-3.8,0.6-5,1.9s-2,3.2-2,5.8c0,0.7,0,1.6,0,2.8s0,2.1,0,2.8
				c0.1,2.6,0.8,4.6,2,5.9c1.3,1.3,2.9,1.9,5,1.9C274,141.6,275.7,141,276.9,139.7L276.9,139.7z M297.8,141.9
				c-1.6-1.2-2.4-3-2.5-5.4c0-0.2,0.1-0.4,0.2-0.6s0.3-0.2,0.5-0.2h0.7c0.2,0,0.4,0.1,0.5,0.2c0.1,0.1,0.2,0.3,0.2,0.5
				c0.1,1.7,0.8,3,2,3.9s2.6,1.3,4.4,1.3c2,0,3.6-0.7,4.7-2c1.1-1.3,1.6-3.1,1.6-5.3v-13.5h-13c-0.2,0-0.4-0.1-0.6-0.2
				c-0.1-0.1-0.2-0.3-0.2-0.6v-0.6c0-0.2,0.1-0.4,0.2-0.6c0.1-0.1,0.3-0.2,0.6-0.2h14.4c0.3,0,0.5,0.1,0.6,0.2s0.2,0.3,0.2,0.6v14.8
				c0,2.8-0.7,5.1-2.2,6.8c-1.5,1.7-3.6,2.6-6.3,2.6C301.3,143.8,299.3,143.1,297.8,141.9L297.8,141.9z M320.6,141.3
				c-1.6-1.6-2.3-4.1-2.3-7.4v-14.3c0-0.2,0.1-0.4,0.2-0.6c0.1-0.2,0.3-0.2,0.6-0.2h0.6c0.3,0,0.5,0.1,0.6,0.2s0.2,0.3,0.2,0.6V134
				c0,2.6,0.6,4.5,1.8,5.8s2.9,1.9,5.1,1.9c2.2,0,3.8-0.6,5-1.9c1.2-1.3,1.8-3.2,1.8-5.8v-14.4c0-0.3,0.1-0.5,0.2-0.6
				c0.1-0.1,0.4-0.2,0.6-0.2h0.6c0.2,0,0.4,0.1,0.6,0.2c0.1,0.2,0.2,0.3,0.2,0.6v14.3c0,3.4-0.8,5.8-2.3,7.4
				c-1.5,1.6-3.8,2.4-6.7,2.4C324.4,143.8,322.2,142.9,320.6,141.3z M342.8,143.2c-0.1-0.1-0.2-0.3-0.2-0.6v-23
				c0-0.2,0.1-0.4,0.2-0.6c0.1-0.2,0.3-0.2,0.6-0.2h8.2c2.5,0,4.5,0.6,5.9,1.8c1.4,1.2,2.1,3,2.1,5.3c0,1.8-0.5,3.3-1.4,4.5
				c-0.9,1.1-2.2,1.9-3.9,2.3l5.7,9.6c0.1,0.1,0.1,0.3,0.1,0.4c0,0.2-0.1,0.4-0.2,0.5c-0.1,0.1-0.3,0.2-0.5,0.2H359
				c-0.4,0-0.6-0.1-0.8-0.2c-0.2-0.1-0.4-0.4-0.5-0.7l-5.6-9.5h-7.2v9.6c0,0.2-0.1,0.4-0.2,0.6c-0.1,0.1-0.4,0.2-0.6,0.2h-0.6
				C343.1,143.4,343,143.3,342.8,143.2L342.8,143.2z M351.4,130.9c2,0,3.6-0.4,4.5-1.3c1-0.8,1.5-2.1,1.5-3.7c0-1.7-0.5-2.9-1.5-3.7
				c-1-0.8-2.5-1.3-4.5-1.3h-6.6v10H351.4z M365.3,143.2c-0.1-0.1-0.2-0.3-0.2-0.6v-23.1c0-0.2,0.1-0.4,0.2-0.6
				c0.1-0.1,0.3-0.2,0.6-0.2h0.7c0.2,0,0.4,0.1,0.6,0.2c0.1,0.1,0.2,0.3,0.2,0.6v23.1c0,0.2-0.1,0.4-0.2,0.6
				c-0.1,0.1-0.3,0.2-0.6,0.2h-0.7C365.6,143.4,365.4,143.3,365.3,143.2z M365.2,116.5c0-0.2,0.1-0.3,0.2-0.5l2.4-2.9
				c0.2-0.3,0.4-0.4,0.6-0.5s0.4-0.1,0.7-0.1h1.6c0.4,0,0.7,0.2,0.7,0.7c0,0.2-0.1,0.3-0.2,0.4l-3.8,3.1c-0.2,0.1-0.4,0.2-0.5,0.3
				c-0.1,0.1-0.3,0.1-0.6,0.1h-0.5C365.4,117,365.2,116.8,365.2,116.5L365.2,116.5z M374.2,143.2c-0.1-0.1-0.2-0.3-0.2-0.6v-23
				c0-0.2,0.1-0.4,0.2-0.6c0.1-0.2,0.3-0.2,0.6-0.2h7.5c2.4,0,4.4,0.4,5.8,1.1c1.4,0.7,2.4,1.8,3,3.2c0.6,1.4,0.9,3.1,1,5.3
				c0,0.7,0,1.6,0,2.8c0,1.2,0,2.1,0,2.8c0,2.3-0.4,4.1-1,5.4s-1.6,2.4-3,3.1c-1.4,0.7-3.3,1-5.7,1h-7.7
				C374.5,143.4,374.3,143.3,374.2,143.2L374.2,143.2z M382.3,141.3c1.9,0,3.4-0.3,4.4-0.8c1.1-0.5,1.9-1.3,2.3-2.4s0.7-2.6,0.8-4.4
				c0-0.7,0-1.6,0-2.6c0-1,0-1.9,0-2.6c0-2.6-0.7-4.5-1.9-5.8c-1.2-1.2-3.1-1.8-5.9-1.8h-5.9v20.4L382.3,141.3L382.3,141.3z
				 M397.9,143.2c-0.1-0.1-0.2-0.3-0.2-0.6v-23.1c0-0.2,0.1-0.4,0.2-0.6c0.1-0.1,0.3-0.2,0.6-0.2h0.7c0.2,0,0.4,0.1,0.6,0.2
				c0.1,0.1,0.2,0.3,0.2,0.6v23.1c0,0.2-0.1,0.4-0.2,0.6c-0.1,0.1-0.3,0.2-0.6,0.2h-0.7C398.2,143.4,398,143.3,397.9,143.2z
				 M407.9,141.2c-1.5-1.7-2.3-4-2.5-6.9c0-0.6,0-1.7,0-3.1c0-1.4,0-2.5,0-3.2c0.1-2.9,0.9-5.2,2.5-6.9s3.8-2.6,6.9-2.6
				c2.1,0,3.8,0.4,5.2,1.1s2.4,1.7,3.1,2.9c0.7,1.2,1,2.3,1.1,3.6v0.1c0,0.2-0.1,0.3-0.2,0.5c-0.1,0.1-0.3,0.2-0.5,0.2h-0.7
				c-0.4,0-0.7-0.3-0.8-0.7c-0.5-2-1.3-3.4-2.4-4.2c-1.2-0.8-2.8-1.2-4.8-1.2c-2.2,0-3.9,0.6-5.1,1.9s-1.9,3.2-2,5.7
				c0,0.6,0,1.6,0,2.9s0,2.3,0,3c0.1,2.6,0.8,4.5,2,5.7c1.2,1.2,2.9,1.9,5.1,1.9c2,0,3.6-0.4,4.8-1.2c1.2-0.8,2-2.2,2.4-4.2
				c0.1-0.5,0.4-0.7,0.8-0.7h0.7c0.2,0,0.4,0.1,0.5,0.2c0.1,0.1,0.2,0.3,0.2,0.5c-0.1,1.2-0.4,2.4-1.1,3.6c-0.7,1.2-1.7,2.1-3.1,2.9
				c-1.4,0.8-3.1,1.1-5.2,1.1C411.7,143.8,409.5,142.9,407.9,141.2z M428.7,134.1c0-0.7,0-1.7,0-2.9s0-2.3,0-2.9
				c0.1-3.2,1-5.6,2.6-7.2s3.9-2.5,6.7-2.5s5,0.8,6.7,2.5c1.6,1.6,2.5,4.1,2.6,7.2c0,1.4,0.1,2.4,0.1,2.9s0,1.6-0.1,2.9
				c-0.2,6.5-3.3,9.7-9.3,9.7S428.9,140.5,428.7,134.1z M443.1,139.7c1.3-1.3,1.9-3.2,2-5.9c0-1.4,0.1-2.3,0.1-2.8
				c0-0.4,0-1.4-0.1-2.8c-0.1-2.6-0.8-4.6-2-5.8c-1.3-1.3-2.9-1.9-5-1.9s-3.8,0.6-5,1.9s-2,3.2-2,5.8c0,0.7,0,1.6,0,2.8s0,2.1,0,2.8
				c0.1,2.6,0.8,4.6,2,5.9c1.3,1.3,2.9,1.9,5,1.9C440.1,141.6,441.8,141,443.1,139.7L443.1,139.7z"/>
		</g>
	</g>
	<g class="st5">
		<path class="st8" d="M724.2,94.8c-19.8,0-36-16.1-36-36c0-19.8,16.1-36,36-36v16c-11,0-20,9-20,20s9,20,20,20c11,0,20-9,20-20h16
			C760.2,78.7,744,94.8,724.2,94.8z M898.2,94.8c-19.8,0-36-16.1-36-36V24.6h16v34.2c0,11,9,20,20,20c11,0,20-9,20-20V24.6h16v34.2
			C934.2,78.7,918.1,94.8,898.2,94.8z M768.4,50.7h-16c0-5.9-2.6-11.4-7-15.2c-3.6-3.1-8.2-4.8-12.9-4.8v-16c8.5,0,16.8,3,23.3,8.6
			C763.7,30.1,768.4,40.1,768.4,50.7z M679.2,40.6v-16h-67.6V93h16V74.8h42.7v-16h-42.7V40.6H679.2z M1018.9,24.6L991.1,55
			l-27.8-30.4h-15.5V93h16V48.8l23.8,26h7l23.8-26V93h16V24.6H1018.9z M851.4,93l-18.1-20.1c9-3.8,15.4-12.8,15.4-23.2
			c0-13.8-11.3-25.1-25.1-25.1H781V93h16V74.8h16.5L829.9,93H851.4z M797.1,40.6h26.5c5,0,9.1,4.1,9.1,9.1s-4.1,9.1-9.1,9.1h-26.5
			C797.1,58.8,797.1,40.6,797.1,40.6z"/>
	</g>
</g>
<g id="Retícula" class="st3">
	<g class="st5">
		<path class="st9" d="M137.3,94.8c-19.8,0-36-16.1-36-36c0-19.8,16.1-36,36-36v16c-11,0-20,9-20,20s9,20,20,20s20-9,20-20h16
			C173.3,78.7,157.1,94.8,137.3,94.8z M311.3,94.8c-19.8,0-36-16.1-36-36V24.6h16v34.2c0,11,9,20,20,20s20-9,20-20V24.6h16v34.2
			C347.3,78.7,331.1,94.8,311.3,94.8z"/>
		<path class="st10" d="M181.4,50.7h-16c0-5.9-2.6-11.4-7-15.2c-3.6-3.1-8.2-4.8-12.9-4.8v-16c8.5,0,16.8,3,23.3,8.6
			C176.8,30.1,181.4,40.1,181.4,50.7z"/>
		<path class="st9" d="M92.2,40.6v-16H24.6V93h16V74.8h42.7v-16H40.6V40.6H92.2z M432,24.6L404.2,55l-27.8-30.4h-15.5V93h16V48.8
			l23.8,26h7l23.8-26V93h16V24.6H432z M264.5,93l-18.1-20.2c9-3.8,15.4-12.8,15.4-23.2c0-13.8-11.3-25.1-25.1-25.1h-42.5V93h16V74.8
			h16.5L243,93H264.5z M210.1,40.6h26.5c5,0,9.1,4.1,9.1,9.1s-4.1,9.1-9.1,9.1h-26.5C210.1,58.8,210.1,40.6,210.1,40.6z"/>
		<g>
			<path class="st9" d="M27.1,141.2c-1.5-1.7-2.3-4-2.5-6.9c0-0.6,0-1.7,0-3.1c0-1.4,0-2.5,0-3.2c0.1-2.9,0.9-5.2,2.5-6.9
				c1.5-1.7,3.8-2.6,6.9-2.6c2.1,0,3.8,0.4,5.2,1.1s2.4,1.7,3.1,2.9c0.7,1.2,1,2.3,1.1,3.6v0.1c0,0.2-0.1,0.3-0.2,0.5
				s-0.3,0.2-0.5,0.2h-0.7c-0.4,0-0.7-0.3-0.8-0.7c-0.5-2-1.3-3.4-2.4-4.2c-1.2-0.8-2.8-1.2-4.8-1.2c-2.2,0-3.9,0.6-5.1,1.9
				c-1.2,1.2-1.9,3.2-2,5.7c0,0.6,0,1.6,0,2.9s0,2.3,0,3c0.1,2.6,0.8,4.5,2,5.7c1.2,1.2,2.9,1.9,5.1,1.9c2,0,3.6-0.4,4.8-1.2
				c1.2-0.8,2-2.2,2.4-4.2c0.1-0.5,0.3-0.7,0.8-0.7h0.7c0.2,0,0.4,0.1,0.5,0.2c0.2,0.1,0.2,0.3,0.2,0.5c-0.1,1.2-0.4,2.4-1.1,3.6
				s-1.7,2.1-3.1,2.9c-1.4,0.8-3.1,1.1-5.2,1.1C30.9,143.8,28.6,142.9,27.1,141.2z M47.9,134.1c0-0.7,0-1.7,0-2.9s0-2.3,0-2.9
				c0.1-3.2,1-5.6,2.6-7.2s3.9-2.5,6.7-2.5s5,0.8,6.7,2.5c1.6,1.6,2.5,4.1,2.6,7.2c0.1,1.4,0.1,2.4,0.1,2.9s0,1.6-0.1,2.9
				c-0.2,6.5-3.3,9.7-9.3,9.7S48,140.5,47.9,134.1z M62.2,139.7c1.3-1.3,1.9-3.2,2-5.9c0.1-1.4,0.1-2.3,0.1-2.8c0-0.4,0-1.4-0.1-2.8
				c-0.1-2.6-0.8-4.6-2-5.8c-1.3-1.3-2.9-1.9-5-1.9s-3.8,0.6-5,1.9s-2,3.2-2,5.8c0,0.7,0,1.6,0,2.8s0,2.1,0,2.8
				c0.1,2.6,0.8,4.6,2,5.9c1.3,1.3,2.9,1.9,5,1.9C59.3,141.6,61,141,62.2,139.7z M72.3,143.2c-0.1-0.1-0.2-0.3-0.2-0.6v-23
				c0-0.2,0.1-0.4,0.2-0.6s0.3-0.2,0.6-0.2h0.7c0.3,0,0.6,0.1,0.7,0.4l13,19.8v-19.4c0-0.2,0.1-0.4,0.2-0.6s0.3-0.2,0.6-0.2h0.6
				c0.3,0,0.5,0.1,0.6,0.2s0.2,0.3,0.2,0.6v23c0,0.2-0.1,0.4-0.2,0.6c-0.1,0.1-0.3,0.2-0.6,0.2h-0.8c-0.3,0-0.6-0.1-0.7-0.4
				l-12.9-19.8v19.4c0,0.2-0.1,0.4-0.2,0.6s-0.3,0.2-0.6,0.2h-0.6C72.6,143.4,72.4,143.3,72.3,143.2z M96,143.2
				c-0.1-0.1-0.2-0.3-0.2-0.6v-23c0-0.2,0.1-0.4,0.2-0.6s0.3-0.2,0.6-0.2h0.6c0.3,0,0.5,0.1,0.6,0.2s0.2,0.3,0.2,0.6v10.3h13.6
				v-10.3c0-0.2,0.1-0.4,0.2-0.6s0.3-0.2,0.6-0.2h0.6c0.3,0,0.5,0.1,0.6,0.2s0.2,0.3,0.2,0.6v23c0,0.2-0.1,0.4-0.2,0.6
				s-0.3,0.2-0.6,0.2h-0.6c-0.2,0-0.4-0.1-0.6-0.2s-0.2-0.3-0.2-0.6V132H98v10.6c0,0.2-0.1,0.4-0.2,0.6s-0.3,0.2-0.6,0.2h-0.6
				C96.4,143.4,96.2,143.3,96,143.2z M120.4,143.2c-0.1-0.1-0.2-0.3-0.2-0.6v-23c0-0.2,0.1-0.4,0.2-0.6s0.3-0.2,0.6-0.2h13.7
				c0.3,0,0.5,0.1,0.6,0.2s0.2,0.3,0.2,0.6v0.5c0,0.2-0.1,0.4-0.2,0.6s-0.4,0.2-0.6,0.2h-12.3v9h11.5c0.3,0,0.5,0.1,0.6,0.2
				s0.2,0.3,0.2,0.6v0.5c0,0.2-0.1,0.4-0.2,0.6s-0.4,0.2-0.6,0.2h-11.5v9.3h12.5c0.3,0,0.5,0.1,0.6,0.2s0.2,0.3,0.2,0.6v0.5
				c0,0.2-0.1,0.4-0.2,0.6s-0.4,0.2-0.6,0.2h-14C120.7,143.4,120.5,143.3,120.4,143.2L120.4,143.2z M142.3,141.2
				c-1.5-1.7-2.3-4-2.5-6.9c0-0.6,0-1.7,0-3.1c0-1.4,0-2.5,0-3.2c0.1-2.9,0.9-5.2,2.5-6.9s3.8-2.6,6.9-2.6c2.1,0,3.8,0.4,5.2,1.1
				c1.4,0.8,2.4,1.7,3.1,2.9c0.7,1.2,1,2.3,1.1,3.6v0.1c0,0.2-0.1,0.3-0.2,0.5s-0.3,0.2-0.5,0.2h-0.7c-0.4,0-0.7-0.3-0.8-0.7
				c-0.4-2-1.3-3.4-2.4-4.2c-1.2-0.8-2.8-1.2-4.8-1.2c-2.2,0-3.9,0.6-5.1,1.9s-1.9,3.2-2,5.7c0,0.6,0,1.6,0,2.9s0,2.3,0,3
				c0.1,2.6,0.8,4.5,2,5.7c1.2,1.2,2.9,1.9,5.1,1.9c2,0,3.6-0.4,4.8-1.2c1.2-0.8,2-2.2,2.4-4.2c0.1-0.5,0.4-0.7,0.8-0.7h0.7
				c0.2,0,0.4,0.1,0.5,0.2c0.1,0.1,0.2,0.3,0.2,0.5c-0.1,1.2-0.4,2.4-1.1,3.6s-1.7,2.1-3.1,2.9c-1.4,0.8-3.1,1.1-5.2,1.1
				C146.1,143.8,143.8,142.9,142.3,141.2L142.3,141.2z M163.8,143.2c-0.1-0.1-0.2-0.3-0.2-0.6v-23.1c0-0.2,0.1-0.4,0.2-0.6
				s0.3-0.2,0.6-0.2h0.7c0.2,0,0.4,0.1,0.6,0.2s0.2,0.3,0.2,0.6v23.1c0,0.2-0.1,0.4-0.2,0.6s-0.3,0.2-0.6,0.2h-0.7
				C164.1,143.4,163.9,143.3,163.8,143.2z M172.4,143.2c-0.1-0.1-0.2-0.3-0.2-0.6v-23c0-0.3,0.1-0.5,0.2-0.6s0.4-0.2,0.6-0.2h0.9
				c0.4,0,0.6,0.2,0.7,0.5l8,15.5l8-15.5c0.2-0.3,0.4-0.5,0.7-0.5h0.8c0.3,0,0.5,0.1,0.6,0.2s0.2,0.3,0.2,0.6v23
				c0,0.2-0.1,0.4-0.2,0.6s-0.4,0.2-0.6,0.2h-0.6c-0.2,0-0.4-0.1-0.6-0.2s-0.2-0.3-0.2-0.6v-19.1l-6.7,13.2
				c-0.2,0.5-0.6,0.7-1.1,0.7h-0.8c-0.5,0-0.9-0.2-1.1-0.7l-6.7-13.2v19.1c0,0.2-0.1,0.4-0.2,0.6s-0.3,0.2-0.6,0.2H173
				C172.7,143.4,172.5,143.3,172.4,143.2L172.4,143.2z M199.5,143.2c-0.1-0.1-0.2-0.3-0.2-0.6v-23c0-0.2,0.1-0.4,0.2-0.6
				s0.3-0.2,0.6-0.2h13.7c0.3,0,0.5,0.1,0.6,0.2s0.2,0.3,0.2,0.6v0.5c0,0.2-0.1,0.4-0.2,0.6s-0.4,0.2-0.6,0.2h-12.3v9H213
				c0.3,0,0.5,0.1,0.6,0.2s0.2,0.3,0.2,0.6v0.5c0,0.2-0.1,0.4-0.2,0.6s-0.4,0.2-0.6,0.2h-11.5v9.3h12.6c0.3,0,0.5,0.1,0.6,0.2
				s0.2,0.3,0.2,0.6v0.5c0,0.2-0.1,0.4-0.2,0.6s-0.4,0.2-0.6,0.2h-14C199.8,143.4,199.7,143.3,199.5,143.2L199.5,143.2z
				 M220.2,143.2c-0.1-0.1-0.2-0.3-0.2-0.6v-23c0-0.2,0.1-0.4,0.2-0.6s0.3-0.2,0.6-0.2h0.7c0.3,0,0.6,0.1,0.7,0.4l13,19.8v-19.4
				c0-0.2,0.1-0.4,0.2-0.6s0.3-0.2,0.6-0.2h0.6c0.3,0,0.5,0.1,0.6,0.2s0.2,0.3,0.2,0.6v23c0,0.2-0.1,0.4-0.2,0.6
				c-0.1,0.1-0.3,0.2-0.6,0.2h-0.8c-0.3,0-0.6-0.1-0.7-0.4l-12.9-19.8v19.4c0,0.2-0.1,0.4-0.2,0.6s-0.4,0.2-0.6,0.2h-0.6
				C220.5,143.4,220.3,143.3,220.2,143.2L220.2,143.2z M249.9,143.2c-0.1-0.1-0.2-0.3-0.2-0.6v-21.7h-7c-0.2,0-0.4-0.1-0.6-0.2
				s-0.2-0.3-0.2-0.6v-0.5c0-0.2,0.1-0.4,0.2-0.6s0.3-0.2,0.6-0.2h16.1c0.3,0,0.5,0.1,0.6,0.2s0.2,0.3,0.2,0.6v0.5
				c0,0.2-0.1,0.4-0.2,0.6c-0.1,0.1-0.4,0.2-0.6,0.2h-6.9v21.7c0,0.2-0.1,0.4-0.2,0.6s-0.4,0.2-0.6,0.2h-0.6
				C250.3,143.4,250.1,143.3,249.9,143.2L249.9,143.2z M262.6,134.1c0-0.7,0-1.7,0-2.9s0-2.3,0-2.9c0.1-3.2,1-5.6,2.6-7.2
				s3.9-2.5,6.7-2.5s5,0.8,6.7,2.5c1.6,1.6,2.5,4.1,2.6,7.2c0,1.4,0.1,2.4,0.1,2.9s0,1.6-0.1,2.9c-0.2,6.5-3.3,9.7-9.3,9.7
				S262.8,140.5,262.6,134.1z M276.9,139.7c1.3-1.3,1.9-3.2,2-5.9c0-1.4,0.1-2.3,0.1-2.8c0-0.4,0-1.4-0.1-2.8
				c-0.1-2.6-0.8-4.6-2-5.8c-1.3-1.3-2.9-1.9-5-1.9s-3.8,0.6-5,1.9s-2,3.2-2,5.8c0,0.7,0,1.6,0,2.8s0,2.1,0,2.8
				c0.1,2.6,0.8,4.6,2,5.9c1.3,1.3,2.9,1.9,5,1.9C274,141.6,275.7,141,276.9,139.7L276.9,139.7z M297.8,141.9
				c-1.6-1.2-2.4-3-2.5-5.4c0-0.2,0.1-0.4,0.2-0.6s0.3-0.2,0.5-0.2h0.7c0.2,0,0.4,0.1,0.5,0.2c0.1,0.1,0.2,0.3,0.2,0.5
				c0.1,1.7,0.8,3,2,3.9s2.6,1.3,4.4,1.3c2,0,3.6-0.7,4.7-2c1.1-1.3,1.6-3.1,1.6-5.3v-13.5h-13c-0.2,0-0.4-0.1-0.6-0.2
				c-0.1-0.1-0.2-0.3-0.2-0.6v-0.6c0-0.2,0.1-0.4,0.2-0.6c0.1-0.1,0.3-0.2,0.6-0.2h14.4c0.3,0,0.5,0.1,0.6,0.2s0.2,0.3,0.2,0.6v14.8
				c0,2.8-0.7,5.1-2.2,6.8c-1.5,1.7-3.6,2.6-6.3,2.6C301.3,143.8,299.3,143.1,297.8,141.9L297.8,141.9z M320.6,141.3
				c-1.6-1.6-2.3-4.1-2.3-7.4v-14.3c0-0.2,0.1-0.4,0.2-0.6c0.1-0.2,0.3-0.2,0.6-0.2h0.6c0.3,0,0.5,0.1,0.6,0.2s0.2,0.3,0.2,0.6V134
				c0,2.6,0.6,4.5,1.8,5.8s2.9,1.9,5.1,1.9c2.2,0,3.8-0.6,5-1.9c1.2-1.3,1.8-3.2,1.8-5.8v-14.4c0-0.3,0.1-0.5,0.2-0.6
				c0.1-0.1,0.4-0.2,0.6-0.2h0.6c0.2,0,0.4,0.1,0.6,0.2c0.1,0.2,0.2,0.3,0.2,0.6v14.3c0,3.4-0.8,5.8-2.3,7.4
				c-1.5,1.6-3.8,2.4-6.7,2.4C324.4,143.8,322.2,142.9,320.6,141.3z M342.8,143.2c-0.1-0.1-0.2-0.3-0.2-0.6v-23
				c0-0.2,0.1-0.4,0.2-0.6c0.1-0.2,0.3-0.2,0.6-0.2h8.2c2.5,0,4.5,0.6,5.9,1.8c1.4,1.2,2.1,3,2.1,5.3c0,1.8-0.5,3.3-1.4,4.5
				c-0.9,1.1-2.2,1.9-3.9,2.3l5.7,9.6c0.1,0.1,0.1,0.3,0.1,0.4c0,0.2-0.1,0.4-0.2,0.5c-0.1,0.1-0.3,0.2-0.5,0.2H359
				c-0.4,0-0.6-0.1-0.8-0.2c-0.2-0.1-0.4-0.4-0.5-0.7l-5.6-9.5h-7.2v9.6c0,0.2-0.1,0.4-0.2,0.6c-0.1,0.1-0.4,0.2-0.6,0.2h-0.6
				C343.1,143.4,343,143.3,342.8,143.2L342.8,143.2z M351.4,130.9c2,0,3.6-0.4,4.5-1.3c1-0.8,1.5-2.1,1.5-3.7c0-1.7-0.5-2.9-1.5-3.7
				c-1-0.8-2.5-1.3-4.5-1.3h-6.6v10H351.4z M365.3,143.2c-0.1-0.1-0.2-0.3-0.2-0.6v-23.1c0-0.2,0.1-0.4,0.2-0.6
				c0.1-0.1,0.3-0.2,0.6-0.2h0.7c0.2,0,0.4,0.1,0.6,0.2c0.1,0.1,0.2,0.3,0.2,0.6v23.1c0,0.2-0.1,0.4-0.2,0.6
				c-0.1,0.1-0.3,0.2-0.6,0.2h-0.7C365.6,143.4,365.4,143.3,365.3,143.2z M365.2,116.5c0-0.2,0.1-0.3,0.2-0.5l2.4-2.9
				c0.2-0.3,0.4-0.4,0.6-0.5s0.4-0.1,0.7-0.1h1.6c0.4,0,0.7,0.2,0.7,0.7c0,0.2-0.1,0.3-0.2,0.4l-3.8,3.1c-0.2,0.1-0.4,0.2-0.5,0.3
				c-0.1,0.1-0.3,0.1-0.6,0.1h-0.5C365.4,117,365.2,116.8,365.2,116.5L365.2,116.5z M374.2,143.2c-0.1-0.1-0.2-0.3-0.2-0.6v-23
				c0-0.2,0.1-0.4,0.2-0.6c0.1-0.2,0.3-0.2,0.6-0.2h7.5c2.4,0,4.4,0.4,5.8,1.1c1.4,0.7,2.4,1.8,3,3.2c0.6,1.4,0.9,3.1,1,5.3
				c0,0.7,0,1.6,0,2.8c0,1.2,0,2.1,0,2.8c0,2.3-0.4,4.1-1,5.4s-1.6,2.4-3,3.1c-1.4,0.7-3.3,1-5.7,1h-7.7
				C374.5,143.4,374.3,143.3,374.2,143.2L374.2,143.2z M382.3,141.3c1.9,0,3.4-0.3,4.4-0.8c1.1-0.5,1.9-1.3,2.3-2.4s0.7-2.6,0.8-4.4
				c0-0.7,0-1.6,0-2.6c0-1,0-1.9,0-2.6c0-2.6-0.7-4.5-1.9-5.8c-1.2-1.2-3.1-1.8-5.9-1.8h-5.9v20.4L382.3,141.3L382.3,141.3z
				 M397.9,143.2c-0.1-0.1-0.2-0.3-0.2-0.6v-23.1c0-0.2,0.1-0.4,0.2-0.6c0.1-0.1,0.3-0.2,0.6-0.2h0.7c0.2,0,0.4,0.1,0.6,0.2
				c0.1,0.1,0.2,0.3,0.2,0.6v23.1c0,0.2-0.1,0.4-0.2,0.6c-0.1,0.1-0.3,0.2-0.6,0.2h-0.7C398.2,143.4,398,143.3,397.9,143.2z
				 M407.9,141.2c-1.5-1.7-2.3-4-2.5-6.9c0-0.6,0-1.7,0-3.1c0-1.4,0-2.5,0-3.2c0.1-2.9,0.9-5.2,2.5-6.9s3.8-2.6,6.9-2.6
				c2.1,0,3.8,0.4,5.2,1.1s2.4,1.7,3.1,2.9c0.7,1.2,1,2.3,1.1,3.6v0.1c0,0.2-0.1,0.3-0.2,0.5c-0.1,0.1-0.3,0.2-0.5,0.2h-0.7
				c-0.4,0-0.7-0.3-0.8-0.7c-0.5-2-1.3-3.4-2.4-4.2c-1.2-0.8-2.8-1.2-4.8-1.2c-2.2,0-3.9,0.6-5.1,1.9s-1.9,3.2-2,5.7
				c0,0.6,0,1.6,0,2.9s0,2.3,0,3c0.1,2.6,0.8,4.5,2,5.7c1.2,1.2,2.9,1.9,5.1,1.9c2,0,3.6-0.4,4.8-1.2c1.2-0.8,2-2.2,2.4-4.2
				c0.1-0.5,0.4-0.7,0.8-0.7h0.7c0.2,0,0.4,0.1,0.5,0.2c0.1,0.1,0.2,0.3,0.2,0.5c-0.1,1.2-0.4,2.4-1.1,3.6c-0.7,1.2-1.7,2.1-3.1,2.9
				c-1.4,0.8-3.1,1.1-5.2,1.1C411.7,143.8,409.5,142.9,407.9,141.2z M428.7,134.1c0-0.7,0-1.7,0-2.9s0-2.3,0-2.9
				c0.1-3.2,1-5.6,2.6-7.2s3.9-2.5,6.7-2.5s5,0.8,6.7,2.5c1.6,1.6,2.5,4.1,2.6,7.2c0,1.4,0.1,2.4,0.1,2.9s0,1.6-0.1,2.9
				c-0.2,6.5-3.3,9.7-9.3,9.7S428.9,140.5,428.7,134.1z M443.1,139.7c1.3-1.3,1.9-3.2,2-5.9c0-1.4,0.1-2.3,0.1-2.8
				c0-0.4,0-1.4-0.1-2.8c-0.1-2.6-0.8-4.6-2-5.8c-1.3-1.3-2.9-1.9-5-1.9s-3.8,0.6-5,1.9s-2,3.2-2,5.8c0,0.7,0,1.6,0,2.8s0,2.1,0,2.8
				c0.1,2.6,0.8,4.6,2,5.9c1.3,1.3,2.9,1.9,5,1.9C440.1,141.6,441.8,141,443.1,139.7L443.1,139.7z"/>
		</g>
	</g>
	<g class="st5">
		<path class="st9" d="M724.2,94.8c-19.8,0-36-16.1-36-36c0-19.8,16.1-36,36-36v16c-11,0-20,9-20,20s9,20,20,20c11,0,20-9,20-20h16
			C760.2,78.7,744,94.8,724.2,94.8z M898.2,94.8c-19.8,0-36-16.1-36-36V24.6h16v34.2c0,11,9,20,20,20c11,0,20-9,20-20V24.6h16v34.2
			C934.2,78.7,918.1,94.8,898.2,94.8z"/>
		<path class="st10" d="M768.4,50.7h-16c0-5.9-2.6-11.4-7-15.2c-3.6-3.1-8.2-4.8-12.9-4.8v-16c8.5,0,16.8,3,23.3,8.6
			C763.7,30.1,768.4,40.1,768.4,50.7z"/>
		<path class="st9" d="M679.2,40.6v-16h-67.6V93h16V74.8h42.7v-16h-42.7V40.6H679.2z M1018.9,24.6L991.1,55l-27.8-30.4h-15.5V93h16
			V48.8l23.8,26h7l23.8-26V93h16V24.6H1018.9z M851.4,93l-18.1-20.1c9-3.8,15.4-12.8,15.4-23.2c0-13.8-11.3-25.1-25.1-25.1H781V93
			h16V74.8h16.5L829.9,93H851.4z M797.1,40.6h26.5c5,0,9.1,4.1,9.1,9.1s-4.1,9.1-9.1,9.1h-26.5C797.1,58.8,797.1,40.6,797.1,40.6z"
			/>
	</g>
</g>
</svg>
