<svg xmlns="http://www.w3.org/2000/svg" xmlns:xlink="http://www.w3.org/1999/xlink" preserveAspectRatio="xMidYMid" width="24" height="19.94" viewBox="0 0 24 19.94">
  <defs>
    <style>
      .cls-1 {
        fill: #000;
        fill-rule: evenodd;
      }
    </style>
  </defs>
  <path d="M24.000,8.953 C24.000,11.154 22.206,12.944 20.000,12.944 L20.000,16.937 C20.000,17.292 19.810,17.621 19.502,17.799 C19.347,17.890 19.173,17.934 19.000,17.934 C18.829,17.934 18.658,17.890 18.504,17.803 L11.735,13.943 L6.000,13.943 L6.000,18.932 C6.000,19.484 5.552,19.930 5.000,19.930 C4.448,19.930 4.000,19.484 4.000,18.932 L4.000,13.943 L2.000,13.943 C0.897,13.943 -0.000,13.048 -0.000,11.947 L-0.000,5.959 C-0.000,4.859 0.897,3.963 2.000,3.963 L11.735,3.963 L18.504,0.103 C18.812,-0.074 19.192,-0.073 19.502,0.106 C19.810,0.285 20.000,0.614 20.000,0.969 L20.000,4.961 C22.206,4.962 24.000,6.752 24.000,8.953 ZM4.000,5.959 L2.000,5.959 L2.000,11.947 L4.000,11.947 L4.000,5.959 ZM18.000,2.689 L12.496,5.827 C12.328,5.924 12.145,5.948 11.965,5.941 C11.934,5.944 11.908,5.959 11.877,5.959 C11.876,5.959 11.876,5.959 11.875,5.959 L6.000,5.959 L6.000,11.947 L12.000,11.947 C12.020,11.947 12.037,11.957 12.057,11.958 C12.124,11.962 12.187,11.980 12.252,11.998 C12.318,12.015 12.382,12.031 12.441,12.060 C12.459,12.069 12.479,12.068 12.496,12.078 L18.000,15.217 L18.000,2.689 ZM20.000,6.957 L20.000,10.949 C21.103,10.948 22.000,10.053 22.000,8.953 C22.000,7.852 21.103,6.958 20.000,6.957 Z" class="cls-1"/>
</svg>
