<?xml version="1.0" encoding="utf-8"?>
<!-- Generator: Adobe Illustrator 23.0.6, SVG Export Plug-In . SVG Version: 6.00 Build 0)  -->
<svg version="1.1" id="Layer_1" xmlns="http://www.w3.org/2000/svg" xmlns:xlink="http://www.w3.org/1999/xlink" x="0px" y="0px"
	 viewBox="0 0 438.5 438.5" style="enable-background:new 0 0 438.5 438.5;" xml:space="preserve">
<style type="text/css">
	.st0{opacity:0.9;fill:#FFFFFF;}
</style>
<path class="st0" d="M388.3,141.5c-3-7.2-6.7-13-10.8-17.2L314.2,61c-4.2-4.2-10-7.8-17.2-10.8c-7.3-3-13.9-4.5-19.9-4.5H67.3
	c-6,0-11.2,2.1-15.4,6.3s-6.3,9.3-6.3,15.4v303.8c0,6,2.1,11.2,6.3,15.4s9.3,6.3,15.4,6.3h303.8c6,0,11.2-2.1,15.4-6.3
	s6.3-9.3,6.3-15.4V161.4C392.9,155.4,391.3,148.7,388.3,141.5z M190.3,81.8c0-2,0.7-3.6,2.1-5.1c1.4-1.4,3.1-2.1,5.1-2.1h43.4
	c2,0,3.6,0.7,5.1,2.1c1.4,1.4,2.1,3.1,2.1,5.1v72.3c0,2-0.7,3.6-2.1,5.1c-1.4,1.4-3.1,2.1-5.1,2.1h-43.4c-2,0-3.6-0.7-5.1-2.1
	c-1.4-1.4-2.1-3.1-2.1-5.1V81.8z M306.1,363.9H132.4v-86.8h173.6V363.9z M363.9,363.9h-29v-94.1c0-6-2.1-11.2-6.3-15.4
	s-9.3-6.3-15.4-6.3H125.2c-6,0-11.2,2.1-15.4,6.3c-4.2,4.2-6.3,9.3-6.3,15.4v94.1h-29V74.6h28.9v94.1c0,6,2.1,11.2,6.3,15.4
	c4.2,4.2,9.3,6.3,15.4,6.3h130.3c6,0,11.2-2.1,15.4-6.3c4.2-4.2,6.3-9.3,6.3-15.4V74.6c2.3,0,5.2,0.8,8.8,2.3c3.6,1.5,6.2,3,7.7,4.5
	l63.5,63.5c1.5,1.5,3,4.1,4.5,7.8c1.5,3.7,2.3,6.6,2.3,8.7L363.9,363.9L363.9,363.9z"/>
</svg>
