<svg width="140" height="43" viewBox="0 0 140 43" fill="none" xmlns="http://www.w3.org/2000/svg">
<path d="M11.0933 37H10.2126C10.1605 36.7467 10.0694 36.5241 9.93919 36.3324C9.81135 36.1406 9.6551 35.9796 9.47044 35.8494C9.28815 35.7169 9.08573 35.6174 8.86319 35.5511C8.64065 35.4848 8.40865 35.4517 8.16717 35.4517C7.72683 35.4517 7.32792 35.563 6.97044 35.7855C6.61532 36.008 6.33242 36.3359 6.12172 36.7692C5.91338 37.2024 5.80922 37.7339 5.80922 38.3636C5.80922 38.9934 5.91338 39.5249 6.12172 39.9581C6.33242 40.3913 6.61532 40.7192 6.97044 40.9418C7.32792 41.1643 7.72683 41.2756 8.16717 41.2756C8.40865 41.2756 8.64065 41.2424 8.86319 41.1761C9.08573 41.1098 9.28815 41.0116 9.47044 40.8814C9.6551 40.7488 9.81135 40.5866 9.93919 40.3949C10.0694 40.2008 10.1605 39.9782 10.2126 39.7273H11.0933C11.027 40.099 10.9063 40.4316 10.7311 40.7251C10.5559 41.0187 10.3381 41.2685 10.0777 41.4744C9.81726 41.678 9.52489 41.8331 9.20055 41.9396C8.87858 42.0462 8.53412 42.0994 8.16717 42.0994C7.5469 42.0994 6.99529 41.9479 6.51234 41.6449C6.02939 41.3419 5.64941 40.911 5.37243 40.3523C5.09544 39.7936 4.95694 39.1307 4.95694 38.3636C4.95694 37.5966 5.09544 36.9337 5.37243 36.375C5.64941 35.8163 6.02939 35.3854 6.51234 35.0824C6.99529 34.7794 7.5469 34.6278 8.16717 34.6278C8.53412 34.6278 8.87858 34.6811 9.20055 34.7876C9.52489 34.8942 9.81726 35.0504 10.0777 35.2564C10.3381 35.46 10.5559 35.7086 10.7311 36.0021C10.9063 36.2933 11.027 36.6259 11.0933 37ZM18.6528 38.3636C18.6528 39.1307 18.5143 39.7936 18.2373 40.3523C17.9603 40.911 17.5803 41.3419 17.0974 41.6449C16.6144 41.9479 16.0628 42.0994 15.4426 42.0994C14.8223 42.0994 14.2707 41.9479 13.7877 41.6449C13.3048 41.3419 12.9248 40.911 12.6478 40.3523C12.3708 39.7936 12.2323 39.1307 12.2323 38.3636C12.2323 37.5966 12.3708 36.9337 12.6478 36.375C12.9248 35.8163 13.3048 35.3854 13.7877 35.0824C14.2707 34.7794 14.8223 34.6278 15.4426 34.6278C16.0628 34.6278 16.6144 34.7794 17.0974 35.0824C17.5803 35.3854 17.9603 35.8163 18.2373 36.375C18.5143 36.9337 18.6528 37.5966 18.6528 38.3636ZM17.8005 38.3636C17.8005 37.7339 17.6952 37.2024 17.4845 36.7692C17.2761 36.3359 16.9932 36.008 16.6357 35.7855C16.2806 35.563 15.8829 35.4517 15.4426 35.4517C15.0022 35.4517 14.6033 35.563 14.2458 35.7855C13.8907 36.008 13.6078 36.3359 13.3971 36.7692C13.1888 37.2024 13.0846 37.7339 13.0846 38.3636C13.0846 38.9934 13.1888 39.5249 13.3971 39.9581C13.6078 40.3913 13.8907 40.7192 14.2458 40.9418C14.6033 41.1643 15.0022 41.2756 15.4426 41.2756C15.8829 41.2756 16.2806 41.1643 16.6357 40.9418C16.9932 40.7192 17.2761 40.3913 17.4845 39.9581C17.6952 39.5249 17.8005 38.9934 17.8005 38.3636ZM25.9007 34.7273V42H25.0484L21.0853 36.2898H21.0143V42H20.1336V34.7273H20.9859L24.9632 40.4517H25.0342V34.7273H25.9007ZM27.6629 42V34.7273H28.5436V37.9659H32.4214V34.7273H33.3021V42H32.4214V38.7472H28.5436V42H27.6629ZM35.0653 42V34.7273H39.4545V35.5085H35.9459V37.9659H39.2272V38.7472H35.9459V41.2188H39.5113V42H35.0653ZM46.8941 37H46.0134C45.9613 36.7467 45.8702 36.5241 45.74 36.3324C45.6121 36.1406 45.4559 35.9796 45.2712 35.8494C45.0889 35.7169 44.8865 35.6174 44.664 35.5511C44.4414 35.4848 44.2094 35.4517 43.968 35.4517C43.5276 35.4517 43.1287 35.563 42.7712 35.7855C42.4161 36.008 42.1332 36.3359 41.9225 36.7692C41.7142 37.2024 41.61 37.7339 41.61 38.3636C41.61 38.9934 41.7142 39.5249 41.9225 39.9581C42.1332 40.3913 42.4161 40.7192 42.7712 40.9418C43.1287 41.1643 43.5276 41.2756 43.968 41.2756C44.2094 41.2756 44.4414 41.2424 44.664 41.1761C44.8865 41.1098 45.0889 41.0116 45.2712 40.8814C45.4559 40.7488 45.6121 40.5866 45.74 40.3949C45.8702 40.2008 45.9613 39.9782 46.0134 39.7273H46.8941C46.8278 40.099 46.7071 40.4316 46.5319 40.7251C46.3567 41.0187 46.1389 41.2685 45.8785 41.4744C45.618 41.678 45.3257 41.8331 45.0013 41.9396C44.6794 42.0462 44.3349 42.0994 43.968 42.0994C43.3477 42.0994 42.7961 41.9479 42.3131 41.6449C41.8302 41.3419 41.4502 40.911 41.1732 40.3523C40.8962 39.7936 40.7577 39.1307 40.7577 38.3636C40.7577 37.5966 40.8962 36.9337 41.1732 36.375C41.4502 35.8163 41.8302 35.3854 42.3131 35.0824C42.7961 34.7794 43.3477 34.6278 43.968 34.6278C44.3349 34.6278 44.6794 34.6811 45.0013 34.7876C45.3257 34.8942 45.618 35.0504 45.8785 35.2564C46.1389 35.46 46.3567 35.7086 46.5319 36.0021C46.7071 36.2933 46.8278 36.6259 46.8941 37ZM49.1979 34.7273V42H48.3172V34.7273H49.1979ZM50.9637 34.7273H52.0148L54.4864 40.7642H54.5716L57.0432 34.7273H58.0944V42H57.2705V36.4744H57.1995L54.9268 42H54.1313L51.8586 36.4744H51.7876V42H50.9637V34.7273ZM59.8602 42V34.7273H64.2494V35.5085H60.7409V37.9659H64.0221V38.7472H60.7409V41.2188H64.3062V42H59.8602ZM71.6038 34.7273V42H70.7515L66.7884 36.2898H66.7174V42H65.8367V34.7273H66.689L70.6663 40.4517H70.7373V34.7273H71.6038ZM72.9683 35.5085V34.7273H78.4229V35.5085H76.1359V42H75.2552V35.5085H72.9683ZM85.6157 38.3636C85.6157 39.1307 85.4772 39.7936 85.2002 40.3523C84.9232 40.911 84.5432 41.3419 84.0603 41.6449C83.5773 41.9479 83.0257 42.0994 82.4055 42.0994C81.7852 42.0994 81.2336 41.9479 80.7506 41.6449C80.2677 41.3419 79.8877 40.911 79.6107 40.3523C79.3337 39.7936 79.1952 39.1307 79.1952 38.3636C79.1952 37.5966 79.3337 36.9337 79.6107 36.375C79.8877 35.8163 80.2677 35.3854 80.7506 35.0824C81.2336 34.7794 81.7852 34.6278 82.4055 34.6278C83.0257 34.6278 83.5773 34.7794 84.0603 35.0824C84.5432 35.3854 84.9232 35.8163 85.2002 36.375C85.4772 36.9337 85.6157 37.5966 85.6157 38.3636ZM84.7634 38.3636C84.7634 37.7339 84.6581 37.2024 84.4474 36.7692C84.239 36.3359 83.9561 36.008 83.5986 35.7855C83.2435 35.563 82.8458 35.4517 82.4055 35.4517C81.9651 35.4517 81.5662 35.563 81.2087 35.7855C80.8536 36.008 80.5707 36.3359 80.36 36.7692C80.1517 37.2024 80.0475 37.7339 80.0475 38.3636C80.0475 38.9934 80.1517 39.5249 80.36 39.9581C80.5707 40.3913 80.8536 40.7192 81.2087 40.9418C81.5662 41.1643 81.9651 41.2756 82.4055 41.2756C82.8458 41.2756 83.2435 41.1643 83.5986 40.9418C83.9561 40.7192 84.239 40.3913 84.4474 39.9581C84.6581 39.5249 84.7634 38.9934 84.7634 38.3636ZM92.6931 34.7273H93.5738V39.9261C93.5738 40.3902 93.4885 40.7843 93.3181 41.1087C93.1476 41.433 92.9073 41.6792 92.5972 41.8473C92.2871 42.0154 91.9213 42.0994 91.4999 42.0994C91.1022 42.0994 90.7483 42.0272 90.4381 41.8828C90.128 41.736 89.8841 41.5277 89.7066 41.2578C89.529 40.9879 89.4403 40.6671 89.4403 40.2955H90.3067C90.3067 40.5014 90.3576 40.6813 90.4594 40.8352C90.5636 40.9867 90.7056 41.1051 90.8856 41.1903C91.0655 41.2756 91.2703 41.3182 91.4999 41.3182C91.7532 41.3182 91.9687 41.2649 92.1462 41.1584C92.3238 41.0518 92.4587 40.8956 92.551 40.6896C92.6457 40.4813 92.6931 40.2268 92.6931 39.9261V34.7273ZM100.111 34.7273H100.992V39.5426C100.992 40.0398 100.875 40.4837 100.641 40.8743C100.409 41.2625 100.081 41.5691 99.6569 41.794C99.2331 42.0166 98.7359 42.1278 98.1654 42.1278C97.5948 42.1278 97.0977 42.0166 96.6739 41.794C96.2501 41.5691 95.9211 41.2625 95.6867 40.8743C95.4547 40.4837 95.3387 40.0398 95.3387 39.5426V34.7273H96.2194V39.4716C96.2194 39.8267 96.2975 40.1428 96.4537 40.4197C96.61 40.6944 96.8325 40.911 97.1214 41.0696C97.4126 41.2259 97.7606 41.304 98.1654 41.304C98.5702 41.304 98.9182 41.2259 99.2094 41.0696C99.5006 40.911 99.7232 40.6944 99.877 40.4197C100.033 40.1428 100.111 39.8267 100.111 39.4716V34.7273ZM102.751 42V34.7273H105.208C105.776 34.7273 106.243 34.8243 106.607 35.0185C106.972 35.2102 107.242 35.4742 107.417 35.8104C107.592 36.1465 107.68 36.5289 107.68 36.9574C107.68 37.3859 107.592 37.7659 107.417 38.0973C107.242 38.4287 106.973 38.6892 106.611 38.8786C106.249 39.0656 105.786 39.1591 105.222 39.1591H103.234V38.3636H105.194C105.582 38.3636 105.895 38.3068 106.131 38.1932C106.371 38.0795 106.543 37.9186 106.65 37.7102C106.759 37.4995 106.813 37.2486 106.813 36.9574C106.813 36.6662 106.759 36.4117 106.65 36.1939C106.541 35.9761 106.367 35.808 106.128 35.6896C105.889 35.5689 105.573 35.5085 105.18 35.5085H103.631V42H102.751ZM106.174 38.733L107.964 42H106.941L105.18 38.733H106.174ZM110.028 34.7273V42H109.147V34.7273H110.028ZM109.204 33.9886L110.071 32.3409H111.051L109.943 33.9886H109.204ZM114.038 42H111.794V34.7273H114.138C114.843 34.7273 115.447 34.8729 115.949 35.1641C116.45 35.4529 116.835 35.8684 117.103 36.4105C117.37 36.9503 117.504 37.5966 117.504 38.3494C117.504 39.107 117.369 39.7592 117.099 40.3061C116.829 40.8506 116.436 41.2696 115.92 41.5632C115.404 41.8544 114.777 42 114.038 42ZM112.674 41.2188H113.981C114.583 41.2188 115.081 41.1027 115.476 40.8707C115.872 40.6387 116.166 40.3085 116.361 39.88C116.555 39.4515 116.652 38.9413 116.652 38.3494C116.652 37.7623 116.556 37.2569 116.364 36.8331C116.172 36.407 115.886 36.0803 115.505 35.853C115.124 35.6233 114.649 35.5085 114.081 35.5085H112.674V41.2188ZM119.862 34.7273V42H118.981V34.7273H119.862ZM127.48 37H126.599C126.547 36.7467 126.456 36.5241 126.326 36.3324C126.198 36.1406 126.042 35.9796 125.857 35.8494C125.675 35.7169 125.472 35.6174 125.25 35.5511C125.027 35.4848 124.795 35.4517 124.554 35.4517C124.114 35.4517 123.715 35.563 123.357 35.7855C123.002 36.008 122.719 36.3359 122.508 36.7692C122.3 37.2024 122.196 37.7339 122.196 38.3636C122.196 38.9934 122.3 39.5249 122.508 39.9581C122.719 40.3913 123.002 40.7192 123.357 40.9418C123.715 41.1643 124.114 41.2756 124.554 41.2756C124.795 41.2756 125.027 41.2424 125.25 41.1761C125.472 41.1098 125.675 41.0116 125.857 40.8814C126.042 40.7488 126.198 40.5866 126.326 40.3949C126.456 40.2008 126.547 39.9782 126.599 39.7273H127.48C127.414 40.099 127.293 40.4316 127.118 40.7251C126.943 41.0187 126.725 41.2685 126.464 41.4744C126.204 41.678 125.912 41.8331 125.587 41.9396C125.265 42.0462 124.921 42.0994 124.554 42.0994C123.934 42.0994 123.382 41.9479 122.899 41.6449C122.416 41.3419 122.036 40.911 121.759 40.3523C121.482 39.7936 121.344 39.1307 121.344 38.3636C121.344 37.5966 121.482 36.9337 121.759 36.375C122.036 35.8163 122.416 35.3854 122.899 35.0824C123.382 34.7794 123.934 34.6278 124.554 34.6278C124.921 34.6278 125.265 34.6811 125.587 34.7876C125.912 34.8942 126.204 35.0504 126.464 35.2564C126.725 35.46 126.943 35.7086 127.118 36.0021C127.293 36.2933 127.414 36.6259 127.48 37ZM135.04 38.3636C135.04 39.1307 134.901 39.7936 134.624 40.3523C134.347 40.911 133.967 41.3419 133.484 41.6449C133.001 41.9479 132.45 42.0994 131.829 42.0994C131.209 42.0994 130.657 41.9479 130.174 41.6449C129.691 41.3419 129.312 40.911 129.035 40.3523C128.758 39.7936 128.619 39.1307 128.619 38.3636C128.619 37.5966 128.758 36.9337 129.035 36.375C129.312 35.8163 129.691 35.3854 130.174 35.0824C130.657 34.7794 131.209 34.6278 131.829 34.6278C132.45 34.6278 133.001 34.7794 133.484 35.0824C133.967 35.3854 134.347 35.8163 134.624 36.375C134.901 36.9337 135.04 37.5966 135.04 38.3636ZM134.187 38.3636C134.187 37.7339 134.082 37.2024 133.871 36.7692C133.663 36.3359 133.38 36.008 133.022 35.7855C132.667 35.563 132.27 35.4517 131.829 35.4517C131.389 35.4517 130.99 35.563 130.633 35.7855C130.277 36.008 129.995 36.3359 129.784 36.7692C129.575 37.2024 129.471 37.7339 129.471 38.3636C129.471 38.9934 129.575 39.5249 129.784 39.9581C129.995 40.3913 130.277 40.7192 130.633 40.9418C130.99 41.1643 131.389 41.2756 131.829 41.2756C132.27 41.2756 132.667 41.1643 133.022 40.9418C133.38 40.7192 133.663 40.3913 133.871 39.9581C134.082 39.5249 134.187 38.9934 134.187 38.3636Z" fill="white"/>
<path d="M37.3093 26.5166C30.7546 26.5166 25.3916 21.1867 25.3916 14.5989C25.3916 8.04412 30.7215 2.68115 37.3093 2.68115V7.97791C33.6678 7.97791 30.6884 10.9573 30.6884 14.5989C30.6884 18.2404 33.6678 21.2198 37.3093 21.2198C40.9508 21.2198 43.9303 18.2404 43.9303 14.5989H49.227C49.227 21.1867 43.8641 26.5166 37.3093 26.5166ZM94.9116 26.5166C88.3568 26.5166 82.9939 21.1867 82.9939 14.5989V3.27704H88.2906V14.5989C88.2906 18.2404 91.2701 21.2198 94.9116 21.2198C98.5531 21.2198 101.533 18.2404 101.533 14.5989V3.27704H106.829V14.5989C106.829 21.1867 101.466 26.5166 94.9116 26.5166Z" fill="white"/>
<path d="M51.9085 11.9177H46.6118C46.6118 9.96453 45.751 8.14377 44.2944 6.88579C43.1027 5.85954 41.5798 5.29676 40.0239 5.29676V0C42.8378 0 45.5855 0.993142 47.7373 2.84701C50.3857 5.09813 51.9085 8.40861 51.9085 11.9177Z" fill="#D7282F"/>
<path d="M22.3788 8.57401V3.27725H0V25.9209H5.29676V19.8958H19.4325V14.5991H5.29676V8.57401H22.3788ZM134.869 3.27725L125.666 13.3411L116.463 3.27725H111.331V25.9209H116.628V11.2886L124.507 19.8958H126.824L134.703 11.2886V25.9209H140V3.27725H134.869ZM79.4183 25.9209L73.4263 19.2337C76.4058 17.9758 78.5245 14.9963 78.5245 11.5534C78.5245 6.98498 74.7836 3.24414 70.2152 3.24414H56.1457V25.9209H61.4424V19.8958H66.9047L72.3008 25.9209H79.4183ZM61.4093 8.57401H70.1821C71.8373 8.57401 73.1946 9.9313 73.1946 11.5865C73.1946 13.2418 71.8373 14.5991 70.1821 14.5991H61.4093V8.57401Z" fill="white"/>
</svg>
