<svg width="24" height="25" viewBox="0 0 24 25" fill="none" xmlns="http://www.w3.org/2000/svg">
<path d="M6.36475 13.9578C6.36475 15.4613 6.96201 16.9032 8.02516 17.9664C9.0883 19.0295 10.5302 19.6268 12.0337 19.6268C12.7783 19.6269 13.5156 19.4804 14.2035 19.1955C14.8914 18.9107 15.5165 18.4931 16.043 17.9667C16.5695 17.4403 16.9872 16.8153 17.2721 16.1274C17.5571 15.4396 17.7037 14.7023 17.7037 13.9578" stroke="#D7282F" stroke-width="1.5" stroke-miterlimit="10" stroke-linecap="round" stroke-linejoin="round"/>
<path d="M17.7037 10.7028V8.4488C17.7037 6.94516 17.1064 5.5031 16.0432 4.43986C14.98 3.37662 13.5379 2.7793 12.0342 2.7793C10.5306 2.7793 9.08854 3.37662 8.0253 4.43986C6.96207 5.5031 6.36475 6.94516 6.36475 8.4488V10.7028" stroke="#D7282F" stroke-width="1.5" stroke-miterlimit="10" stroke-linecap="round" stroke-linejoin="round"/>
<path d="M12.0337 21.7797V19.6277" stroke="#D7282F" stroke-width="1.5" stroke-miterlimit="10" stroke-linecap="round" stroke-linejoin="round"/>
<path d="M4.8999 13.9578H19.1679" stroke="#D7282F" stroke-width="1.5" stroke-miterlimit="10" stroke-linecap="round" stroke-linejoin="round"/>
</svg>
