<svg width="24" height="24" viewBox="0 0 24 24" fill="none" xmlns="http://www.w3.org/2000/svg">
<path d="M12 3.25297C13.73 3.2531 15.4211 3.76621 16.8594 4.72742C18.2978 5.68863 19.4188 7.05478 20.0808 8.6531C20.7427 10.2514 20.9159 12.0101 20.5783 13.7068C20.2407 15.4035 19.4076 16.9621 18.1842 18.1853C16.9609 19.4085 15.4023 20.2415 13.7056 20.579C12.0089 20.9165 10.2502 20.7432 8.6519 20.0811C7.05362 19.4191 5.68755 18.298 4.72644 16.8595C3.76533 15.4211 3.25233 13.73 3.25233 12C3.25482 9.68082 4.17727 7.45733 5.81725 5.81747C7.45724 4.1776 9.6808 3.2553 12 3.25297ZM12 2C10.0222 2 8.08881 2.58652 6.44431 3.68533C4.79982 4.78414 3.51809 6.34592 2.76121 8.17318C2.00433 10.0004 1.8063 12.0111 2.19215 13.9509C2.57801 15.8907 3.53038 17.6725 4.92891 19.0711C6.32744 20.4696 8.1093 21.422 10.0491 21.8078C11.9889 22.1937 13.9996 21.9957 15.8268 21.2388C17.6541 20.4819 19.2159 19.2002 20.3147 17.5557C21.4135 15.9112 22 13.9778 22 12C22 9.34785 20.9465 6.8043 19.0711 4.92894C17.1957 3.05357 14.6522 2 12 2V2Z" fill="black"/>
<path d="M10.9763 12.9711C10.9779 12.6464 11.0857 12.3311 11.2833 12.0734C11.549 11.7308 11.8522 11.4192 12.1873 11.1443C12.4897 10.8847 12.7668 10.5971 13.0149 10.2854C13.1705 10.0661 13.2512 9.80238 13.2448 9.53357C13.2488 9.36889 13.2195 9.20511 13.1587 9.05204C13.0978 8.89896 13.0067 8.75974 12.8907 8.64274C12.7748 8.52574 12.6364 8.43333 12.4839 8.3711C12.3314 8.30887 12.1679 8.2781 12.0032 8.28059C11.6744 8.27739 11.3568 8.39898 11.1142 8.62079C10.8312 8.89281 10.625 9.23467 10.5165 9.61188L9.16827 9.02359C9.33953 8.36684 9.71836 7.78301 10.2483 7.35902C10.7713 6.96648 11.4115 6.76208 12.0652 6.77892C12.5625 6.77352 13.0539 6.88757 13.4979 7.11155C13.922 7.32463 14.2796 7.64959 14.5323 8.05128C14.7888 8.45896 14.9218 8.93227 14.9151 9.41392C14.9208 9.84781 14.8039 10.2745 14.578 10.6449C14.2931 11.0811 13.9476 11.4746 13.5518 11.8133C13.2494 12.0696 12.9649 12.3463 12.7004 12.6416C12.5488 12.8152 12.4645 13.0375 12.463 13.2681C12.4674 13.4093 12.4884 13.5496 12.5256 13.6859H11.1473C11.0394 13.4628 10.9811 13.2189 10.9763 12.9711V12.9711ZM11.896 17.3371C11.7387 17.3409 11.5822 17.3127 11.436 17.2543C11.2899 17.1958 11.1571 17.1082 11.0459 16.9969C10.9328 16.8865 10.8437 16.7538 10.7843 16.6073C10.7249 16.4608 10.6965 16.3036 10.7007 16.1455C10.697 15.9863 10.7256 15.828 10.785 15.6803C10.8443 15.5325 10.9331 15.3984 11.0459 15.286C11.156 15.1726 11.2884 15.0831 11.4346 15.0232C11.5809 14.9633 11.738 14.9341 11.896 14.9376C12.055 14.9341 12.2131 14.9631 12.3605 15.0227C12.5079 15.0824 12.6416 15.1714 12.7535 15.2844C12.8654 15.3975 12.953 15.5322 13.0111 15.6802C13.0692 15.8283 13.0965 15.9866 13.0914 16.1455C13.0957 16.3035 13.0674 16.4606 13.0082 16.6071C12.949 16.7536 12.8602 16.8863 12.7474 16.9969C12.6358 17.1082 12.5028 17.1956 12.3565 17.2541C12.2102 17.3126 12.0535 17.3408 11.896 17.3371V17.3371Z" fill="black"/>
</svg>
