<svg width="24" height="14" viewBox="0 0 24 14" fill="none" xmlns="http://www.w3.org/2000/svg">
<path d="M2.85303 0H21.1386C21.9244 0.0357177 22.6971 0.376603 23.2247 0.965005C23.731 1.5133 24.0092 2.25962 23.9992 3.0053C23.9992 5.68037 24.0017 8.35482 23.9979 11.0293C24.0036 12.1841 23.2616 13.2976 22.192 13.7332C21.8567 13.8804 21.4927 13.9374 21.1317 13.9738H2.87872C2.08541 13.9431 1.30213 13.6122 0.763858 13.0226C0.355297 12.5871 0.0908609 12.0256 0 11.4372V2.53784C0.0983804 1.87549 0.422973 1.24824 0.916755 0.794563C1.43623 0.301408 2.14056 0.0300781 2.85303 0ZM2.76844 1.89555C2.25899 1.95884 1.84542 2.43319 1.85168 2.9464C1.8498 5.64027 1.8498 8.33414 1.85168 11.028C1.84291 11.6026 2.3674 12.1064 2.93951 12.0851C8.97831 12.0851 15.0171 12.087 21.0559 12.0845C21.6193 12.0945 22.1224 11.5926 22.1187 11.0305C22.1212 8.33539 22.1206 5.64027 22.1187 2.94515C22.1206 2.5134 21.8323 2.10233 21.4275 1.95445C21.1913 1.85858 20.9318 1.88865 20.6837 1.88427C14.7903 1.88364 8.89747 1.88489 3.00468 1.88364C2.92509 1.88301 2.84677 1.8874 2.76844 1.89555Z" fill="black"/>
<path d="M4.84502 4.03851C9.5372 4.02097 14.2313 4.03663 18.9241 4.03037C19.2161 4.01846 19.5275 4.10494 19.7255 4.33115C20.0439 4.67893 20.0432 5.26796 19.7205 5.61323C19.5369 5.82064 19.2543 5.91401 18.9823 5.91088C14.3259 5.9115 9.66879 5.91088 5.0117 5.9115C4.74163 5.91714 4.45839 5.83505 4.26915 5.63391C3.922 5.28864 3.91761 4.6689 4.25912 4.31799C4.40951 4.15381 4.62507 4.06045 4.84502 4.03851Z" fill="black"/>
<path d="M4.60084 8.12115C4.73305 8.07227 4.87467 8.05786 5.01441 8.05786C8.33428 8.05911 11.6548 8.05786 14.9746 8.05911C15.2723 8.05661 15.5831 8.18068 15.756 8.43133C16.0236 8.79102 15.9923 9.34057 15.6752 9.66077C15.4822 9.86505 15.1927 9.94651 14.9182 9.939C11.594 9.93649 8.26911 9.94088 4.94485 9.93712C4.58141 9.94088 4.22173 9.72406 4.08387 9.38255C3.86894 8.91571 4.10267 8.28783 4.60084 8.12115Z" fill="black"/>
</svg>
