<svg width="24" height="24" viewBox="0 0 24 24" fill="none" xmlns="http://www.w3.org/2000/svg">
<path d="M6.36475 13.678C6.36475 15.1815 6.96201 16.6234 8.02516 17.6866C9.0883 18.7497 10.5302 19.347 12.0337 19.347C12.7783 19.3471 13.5156 19.2006 14.2035 18.9157C14.8914 18.6309 15.5165 18.2133 16.043 17.6869C16.5695 17.1605 16.9872 16.5355 17.2721 15.8476C17.5571 15.1598 17.7037 14.4225 17.7037 13.678" stroke="#003A70" stroke-width="1.5" stroke-miterlimit="10" stroke-linecap="round" stroke-linejoin="round"/>
<path d="M17.7037 10.423V8.16901C17.7037 6.66537 17.1064 5.22331 16.0432 4.16007C14.98 3.09683 13.5379 2.49951 12.0342 2.49951C10.5306 2.49951 9.08854 3.09683 8.0253 4.16007C6.96207 5.22331 6.36475 6.66537 6.36475 8.16901L6.36475 10.423" stroke="#003A70" stroke-width="1.5" stroke-miterlimit="10" stroke-linecap="round" stroke-linejoin="round"/>
<path d="M12.0337 21.4999V19.3479" stroke="#003A70" stroke-width="1.5" stroke-miterlimit="10" stroke-linecap="round" stroke-linejoin="round"/>
<path d="M4.8999 13.678H19.1679" stroke="#003A70" stroke-width="1.5" stroke-miterlimit="10" stroke-linecap="round" stroke-linejoin="round"/>
</svg>
