<svg width="24" height="24" viewBox="0 0 24 24" fill="none" xmlns="http://www.w3.org/2000/svg">
<path d="M11.845 21.662C8.153 21.662 5 21.088 5 18.787C5 16.486 8.133 14.362 11.845 14.362C15.537 14.362 18.69 16.462 18.69 18.762C18.69 21.062 15.556 21.662 11.845 21.662Z" stroke="#003A70" stroke-width="1.5" stroke-miterlimit="10" stroke-linecap="round" stroke-linejoin="round"/>
<path d="M11.837 11.174C12.9952 11.1699 14.1044 10.7064 14.9212 9.88526C15.738 9.06413 16.1955 7.95246 16.1935 6.79427C16.1914 5.63609 15.7299 4.52605 14.9102 3.70781C14.0905 2.88958 12.9797 2.43002 11.8215 2.43002C10.6633 2.43002 9.55246 2.88958 8.73277 3.70781C7.91309 4.52605 7.45156 5.63609 7.44951 6.79427C7.44745 7.95246 7.90504 9.06413 8.72182 9.88526C9.5386 10.7064 10.6478 11.1699 11.806 11.174H11.837Z" stroke="#003A70" stroke-width="1.5" stroke-miterlimit="10" stroke-linecap="round" stroke-linejoin="round"/>
</svg>
