<svg width="24" height="25" viewBox="0 0 24 25" fill="none" xmlns="http://www.w3.org/2000/svg">
<path d="M14.489 16.1234H8.53961" stroke="black" stroke-width="1.5" stroke-miterlimit="10" stroke-linecap="round" stroke-linejoin="round"/>
<path d="M12.237 12.1124H8.53961" stroke="black" stroke-width="1.5" stroke-miterlimit="10" stroke-linecap="round" stroke-linejoin="round"/>
<path d="M20.9396 8.97346L14.6928 3.57346C13.7978 3.46838 12.896 3.41827 11.9935 3.42346C5.06364 3.42346 2.75 5.74346 2.75 12.6735C2.75 19.6035 5.06364 21.9235 11.9935 21.9235C18.9235 21.9235 21.2481 19.6135 21.2481 12.6735C21.2655 11.4343 21.1623 10.1961 20.9396 8.97346V8.97346Z" stroke="black" stroke-width="1.5" stroke-miterlimit="10" stroke-linecap="round" stroke-linejoin="round"/>
<path d="M14.0802 3.50647V6.16747C14.0802 6.60919 14.1761 7.04658 14.3624 7.45467C14.5486 7.86275 14.8217 8.23353 15.1658 8.54582C15.51 8.85812 15.9186 9.10582 16.3682 9.27476C16.8179 9.44371 17.2998 9.5306 17.7865 9.53047H21.0377" stroke="black" stroke-width="1.5" stroke-miterlimit="10" stroke-linecap="round" stroke-linejoin="round"/>
</svg>
