<svg width="20" height="21" viewBox="0 0 20 21" fill="none" xmlns="http://www.w3.org/2000/svg">
<g clip-path="url(#clip0_186_170)">
<path d="M19.094 17.8797L15.492 14.2757C15.222 14.0057 14.876 13.8597 14.524 13.8257C15.61 12.4717 16.264 10.7557 16.264 8.88974C16.262 4.52774 12.714 0.979736 8.35202 0.979736C3.99002 0.979736 0.442017 4.52774 0.442017 8.88974C0.442017 13.2517 3.99002 16.7997 8.35202 16.7997C9.99802 16.7997 11.528 16.2937 12.794 15.4297C12.802 15.8217 12.954 16.2117 13.254 16.5117L16.858 20.1157C17.166 20.4257 17.572 20.5797 17.976 20.5797C18.38 20.5797 18.786 20.4257 19.094 20.1157C19.712 19.4977 19.712 18.4977 19.094 17.8797ZM8.35202 14.1637C5.44402 14.1637 3.07802 11.7977 3.07802 8.88974C3.07802 5.98174 5.44402 3.61574 8.35202 3.61574C11.26 3.61574 13.626 5.98174 13.626 8.88974C13.626 11.7977 11.26 14.1637 8.35202 14.1637Z" fill="white"/>
</g>
<defs>
<clipPath id="clip0_186_170">
<rect width="20" height="20" fill="white" transform="translate(0 0.779785)"/>
</clipPath>
</defs>
</svg>
