<?xml version="1.0" encoding="utf-8"?>
<!-- Generator: Adobe Illustrator 23.0.2, SVG Export Plug-In . SVG Version: 6.00 Build 0)  -->
<svg version="1.1" id="Layer_1" xmlns="http://www.w3.org/2000/svg" xmlns:xlink="http://www.w3.org/1999/xlink" x="0px" y="0px"
	 viewBox="0 0 228 235" style="enable-background:new 0 0 228 235;" xml:space="preserve">
<style type="text/css">
	.st0{clip-path:url(#SVGID_2_);fill:#FFFFFF;}
	.st1{clip-path:url(#SVGID_4_);fill:#FFFFFF;}
	.st2{clip-path:url(#SVGID_6_);fill:#FFFFFF;}
	.st3{clip-path:url(#SVGID_8_);fill:#FFFFFF;}
	.st4{clip-path:url(#SVGID_10_);fill:#FFFFFF;}
	.st5{clip-path:url(#SVGID_12_);fill:#FFFFFF;}
	.st6{clip-path:url(#SVGID_14_);fill:#FFFFFF;}
	.st7{clip-path:url(#SVGID_16_);fill:#FFFFFF;}
</style>
<g>
	<defs>
		<rect id="SVGID_1_" x="-141" y="-140" width="512" height="512"/>
	</defs>
	<clipPath id="SVGID_2_">
		<use xlink:href="#SVGID_1_"  style="overflow:visible;"/>
	</clipPath>
	<path class="st0" d="M205.11,195.42c0,7.59-6.28,13.77-13.63,13.77H38.35c-7.35,0-13.47-6.18-13.47-13.77V37.29
		c0-7.59,6.12-13.45,13.47-13.45h153.13c7.35,0,13.63,5.86,13.63,13.45V195.42z M191.48,4.38H38.35c-17.85,0-31.9,14.47-31.9,32.91
		v158.12c0,18.44,14.05,33.22,31.9,33.22h153.13c17.85,0,32.06-14.79,32.06-33.22V37.29C223.54,18.86,209.34,4.38,191.48,4.38z"/>
</g>
<g>
	<defs>
		<rect id="SVGID_3_" x="-141" y="-140" width="512" height="512"/>
	</defs>
	<clipPath id="SVGID_4_">
		<use xlink:href="#SVGID_3_"  style="overflow:visible;"/>
	</clipPath>
	<path class="st1" d="M169.15,84.26H98.04c-5.26,0-9.52,3.78-9.52,9.22s4.26,9.22,9.52,9.22h71.11c5.26,0,9.52-3.78,9.52-9.22
		S174.41,84.26,169.15,84.26z"/>
</g>
<g>
	<defs>
		<rect id="SVGID_5_" x="-141" y="-140" width="512" height="512"/>
	</defs>
	<clipPath id="SVGID_6_">
		<use xlink:href="#SVGID_5_"  style="overflow:visible;"/>
	</clipPath>
	<ellipse class="st2" cx="62.67" cy="93.51" rx="9.52" ry="9.83"/>
</g>
<g>
	<defs>
		<rect id="SVGID_7_" x="-141" y="-140" width="512" height="512"/>
	</defs>
	<clipPath id="SVGID_8_">
		<use xlink:href="#SVGID_7_"  style="overflow:visible;"/>
	</clipPath>
	<path class="st3" d="M169.15,122.14H98.04c-5.26,0-9.52,4.3-9.52,9.73c0,5.43,4.26,9.73,9.52,9.73h71.11c5.26,0,9.52-4.3,9.52-9.73
		C178.68,126.44,174.41,122.14,169.15,122.14z"/>
</g>
<g>
	<defs>
		<rect id="SVGID_9_" x="-141" y="-140" width="512" height="512"/>
	</defs>
	<clipPath id="SVGID_10_">
		<use xlink:href="#SVGID_9_"  style="overflow:visible;"/>
	</clipPath>
	<ellipse class="st4" cx="62.67" cy="132.19" rx="9.52" ry="9.83"/>
</g>
<g>
	<defs>
		<rect id="SVGID_11_" x="-141" y="-140" width="512" height="512"/>
	</defs>
	<clipPath id="SVGID_12_">
		<use xlink:href="#SVGID_11_"  style="overflow:visible;"/>
	</clipPath>
	<path class="st5" d="M169.15,161.06H98.04c-5.26,0-9.52,4.3-9.52,9.73c0,5.43,4.26,9.73,9.52,9.73h71.11c5.26,0,9.52-4.3,9.52-9.73
		C178.68,165.35,174.41,161.06,169.15,161.06z"/>
</g>
<g>
	<defs>
		<rect id="SVGID_13_" x="-141" y="-140" width="512" height="512"/>
	</defs>
	<clipPath id="SVGID_14_">
		<use xlink:href="#SVGID_13_"  style="overflow:visible;"/>
	</clipPath>
	<ellipse class="st6" cx="62.67" cy="170.86" rx="9.52" ry="9.83"/>
</g>
<g>
	<defs>
		<rect id="SVGID_15_" x="-141" y="-140" width="512" height="512"/>
	</defs>
	<clipPath id="SVGID_16_">
		<use xlink:href="#SVGID_15_"  style="overflow:visible;"/>
	</clipPath>
	<path class="st7" d="M169.15,45.34H58.48c-5.26,0-9.52,4.3-9.52,9.73c0,5.43,4.26,9.73,9.52,9.73h110.68c5.26,0,9.52-4.3,9.52-9.73
		C178.68,49.64,174.41,45.34,169.15,45.34z"/>
</g>
</svg>
